<svg width="150" height="33" viewBox="0 0 150 33" fill="none" xmlns="http://www.w3.org/2000/svg">
<path d="M16.36 12.896C17.824 13.304 18.952 14.048 19.744 15.128C20.56 16.208 20.968 17.528 20.968 19.088C20.968 21.248 20.188 22.94 18.628 24.164C17.092 25.388 14.968 26 12.256 26H2.968C2.272 26 1.72 25.808 1.312 25.424C0.928 25.04 0.736 24.5 0.736 23.804V2.816C0.736 2.12 0.928 1.58 1.312 1.196C1.72 0.811999 2.272 0.619998 2.968 0.619998H11.896C14.536 0.619998 16.6 1.208 18.088 2.384C19.6 3.536 20.356 5.156 20.356 7.244C20.356 8.588 19.996 9.752 19.276 10.736C18.58 11.72 17.608 12.44 16.36 12.896ZM5.272 11.312H11.14C14.332 11.312 15.928 10.124 15.928 7.748C15.928 6.548 15.532 5.66 14.74 5.084C13.948 4.508 12.748 4.22 11.14 4.22H5.272V11.312ZM11.752 22.4C13.432 22.4 14.656 22.1 15.424 21.5C16.192 20.9 16.576 19.964 16.576 18.692C16.576 17.42 16.18 16.472 15.388 15.848C14.62 15.224 13.408 14.912 11.752 14.912H5.272V22.4H11.752ZM27.1462 26.216C26.4982 26.216 25.9582 26.036 25.5262 25.676C25.1182 25.292 24.9142 24.752 24.9142 24.056V10.16C24.9142 9.464 25.1182 8.936 25.5262 8.576C25.9582 8.216 26.4982 8.036 27.1462 8.036C27.7942 8.036 28.3342 8.216 28.7662 8.576C29.1982 8.936 29.4142 9.464 29.4142 10.16V24.056C29.4142 24.752 29.1982 25.292 28.7662 25.676C28.3342 26.036 27.7942 26.216 27.1462 26.216ZM27.1462 4.832C26.3302 4.832 25.6822 4.616 25.2022 4.184C24.7222 3.728 24.4822 3.14 24.4822 2.42C24.4822 1.7 24.7222 1.124 25.2022 0.692C25.6822 0.26 26.3302 0.0439994 27.1462 0.0439994C27.9382 0.0439994 28.5742 0.26 29.0542 0.692C29.5582 1.124 29.8102 1.7 29.8102 2.42C29.8102 3.14 29.5702 3.728 29.0902 4.184C28.6102 4.616 27.9622 4.832 27.1462 4.832ZM43.9723 22.868C45.1723 22.94 45.7723 23.48 45.7723 24.488C45.7723 25.064 45.5323 25.508 45.0523 25.82C44.5963 26.108 43.9363 26.228 43.0723 26.18L42.1003 26.108C38.0683 25.82 36.0523 23.66 36.0523 19.628V11.78H34.2523C33.6043 11.78 33.1003 11.636 32.7403 11.348C32.4043 11.06 32.2363 10.64 32.2363 10.088C32.2363 9.536 32.4043 9.116 32.7403 8.828C33.1003 8.54 33.6043 8.396 34.2523 8.396H36.0523V5.084C36.0523 4.436 36.2563 3.92 36.6643 3.536C37.0723 3.152 37.6243 2.96 38.3203 2.96C38.9923 2.96 39.5323 3.152 39.9403 3.536C40.3483 3.92 40.5523 4.436 40.5523 5.084V8.396H43.6123C44.2603 8.396 44.7523 8.54 45.0883 8.828C45.4483 9.116 45.6283 9.536 45.6283 10.088C45.6283 10.64 45.4483 11.06 45.0883 11.348C44.7523 11.636 44.2603 11.78 43.6123 11.78H40.5523V19.952C40.5523 21.728 41.3683 22.676 43.0003 22.796L43.9723 22.868ZM58.3413 7.964C60.4533 7.964 62.0253 8.564 63.0573 9.764C64.0893 10.964 64.6053 12.776 64.6053 15.2V24.056C64.6053 24.728 64.4013 25.256 63.9933 25.64C63.6093 26.024 63.0693 26.216 62.3733 26.216C61.6773 26.216 61.1253 26.024 60.7173 25.64C60.3093 25.256 60.1053 24.728 60.1053 24.056V15.452C60.1053 14.084 59.8413 13.088 59.3133 12.464C58.8093 11.84 58.0053 11.528 56.9013 11.528C55.6053 11.528 54.5613 11.936 53.7693 12.752C53.0013 13.568 52.6173 14.66 52.6173 16.028V24.056C52.6173 24.728 52.4133 25.256 52.0053 25.64C51.5973 26.024 51.0453 26.216 50.3493 26.216C49.6533 26.216 49.1013 26.024 48.6933 25.64C48.3093 25.256 48.1173 24.728 48.1173 24.056V10.124C48.1173 9.5 48.3213 8.996 48.7293 8.612C49.1373 8.228 49.6893 8.036 50.3853 8.036C51.0093 8.036 51.5133 8.228 51.8973 8.612C52.3053 8.972 52.5093 9.452 52.5093 10.052V11.024C53.1093 10.04 53.9133 9.284 54.9213 8.756C55.9293 8.228 57.0693 7.964 58.3413 7.964ZM76.8079 7.964C79.2559 7.964 81.0679 8.576 82.2439 9.8C83.4439 11 84.0439 12.836 84.0439 15.308V24.092C84.0439 24.74 83.8519 25.256 83.4679 25.64C83.0839 26 82.5559 26.18 81.8839 26.18C81.2599 26.18 80.7439 25.988 80.3359 25.604C79.9519 25.22 79.7599 24.716 79.7599 24.092V23.3C79.3519 24.236 78.7039 24.968 77.8159 25.496C76.9519 26.024 75.9439 26.288 74.7919 26.288C73.6159 26.288 72.5479 26.048 71.5879 25.568C70.6279 25.088 69.8719 24.428 69.3199 23.588C68.7679 22.748 68.4919 21.812 68.4919 20.78C68.4919 19.484 68.8159 18.464 69.4639 17.72C70.1359 16.976 71.2159 16.436 72.7039 16.1C74.1919 15.764 76.2439 15.596 78.8599 15.596H79.7599V14.768C79.7599 13.592 79.5079 12.74 79.0039 12.212C78.4999 11.66 77.6839 11.384 76.5559 11.384C75.8599 11.384 75.1519 11.492 74.4319 11.708C73.7119 11.9 72.8599 12.188 71.8759 12.572C71.2519 12.884 70.7959 13.04 70.5079 13.04C70.0759 13.04 69.7159 12.884 69.4279 12.572C69.1639 12.26 69.0319 11.852 69.0319 11.348C69.0319 10.94 69.1279 10.592 69.3199 10.304C69.5359 9.992 69.8839 9.704 70.3639 9.44C71.2039 8.984 72.1999 8.624 73.3519 8.36C74.5279 8.096 75.6799 7.964 76.8079 7.964ZM75.6919 23.048C76.8919 23.048 77.8639 22.652 78.6079 21.86C79.3759 21.044 79.7599 20 79.7599 18.728V17.972H79.1119C77.5039 17.972 76.2559 18.044 75.3679 18.188C74.4799 18.332 73.8439 18.584 73.4599 18.944C73.0759 19.304 72.8839 19.796 72.8839 20.42C72.8839 21.188 73.1479 21.824 73.6759 22.328C74.2279 22.808 74.8999 23.048 75.6919 23.048ZM90.8493 26.216C90.2013 26.216 89.6613 26.036 89.2293 25.676C88.8213 25.292 88.6173 24.752 88.6173 24.056V2.564C88.6173 1.868 88.8213 1.34 89.2293 0.979998C89.6613 0.619998 90.2013 0.439999 90.8493 0.439999C91.4973 0.439999 92.0373 0.619998 92.4693 0.979998C92.9013 1.34 93.1173 1.868 93.1173 2.564V24.056C93.1173 24.752 92.9013 25.292 92.4693 25.676C92.0373 26.036 91.4973 26.216 90.8493 26.216ZM110.034 9.332C110.226 8.9 110.478 8.588 110.79 8.396C111.126 8.18 111.486 8.072 111.87 8.072C112.422 8.072 112.914 8.264 113.346 8.648C113.802 9.008 114.03 9.464 114.03 10.016C114.03 10.28 113.958 10.556 113.814 10.844L103.986 31.436C103.578 32.252 102.942 32.66 102.078 32.66C101.526 32.66 101.034 32.48 100.602 32.12C100.194 31.784 99.99 31.352 99.99 30.824C99.99 30.56 100.062 30.26 100.206 29.924L102.654 24.776L95.958 10.844C95.838 10.604 95.778 10.328 95.778 10.016C95.778 9.464 96.006 8.996 96.462 8.612C96.942 8.228 97.482 8.036 98.082 8.036C98.49 8.036 98.862 8.144 99.198 8.36C99.534 8.552 99.798 8.864 99.99 9.296L105.03 20.42L110.034 9.332ZM129.53 22.616C130.874 22.616 131.546 23.18 131.546 24.308C131.546 24.836 131.378 25.256 131.042 25.568C130.706 25.856 130.202 26 129.53 26H117.506C116.906 26 116.414 25.808 116.03 25.424C115.646 25.04 115.454 24.584 115.454 24.056C115.454 23.504 115.67 22.976 116.102 22.472L125.354 11.78H117.326C116.654 11.78 116.15 11.636 115.814 11.348C115.478 11.06 115.31 10.64 115.31 10.088C115.31 9.536 115.478 9.116 115.814 8.828C116.15 8.54 116.654 8.396 117.326 8.396H128.954C129.578 8.396 130.07 8.588 130.43 8.972C130.814 9.332 131.006 9.788 131.006 10.34C131.006 10.916 130.802 11.444 130.394 11.924L121.106 22.616H129.53ZM148.252 21.176C148.66 21.176 148.984 21.332 149.224 21.644C149.488 21.956 149.62 22.376 149.62 22.904C149.62 23.648 149.176 24.272 148.288 24.776C147.472 25.232 146.548 25.604 145.516 25.892C144.484 26.156 143.5 26.288 142.564 26.288C139.732 26.288 137.488 25.472 135.832 23.84C134.176 22.208 133.348 19.976 133.348 17.144C133.348 15.344 133.708 13.748 134.428 12.356C135.148 10.964 136.156 9.884 137.452 9.116C138.772 8.348 140.26 7.964 141.916 7.964C143.5 7.964 144.88 8.312 146.056 9.008C147.232 9.704 148.144 10.688 148.792 11.96C149.44 13.232 149.764 14.732 149.764 16.46C149.764 17.492 149.308 18.008 148.396 18.008H137.776C137.92 19.664 138.388 20.888 139.18 21.68C139.972 22.448 141.124 22.832 142.636 22.832C143.404 22.832 144.076 22.736 144.652 22.544C145.252 22.352 145.924 22.088 146.668 21.752C147.388 21.368 147.916 21.176 148.252 21.176ZM142.024 11.132C140.8 11.132 139.816 11.516 139.072 12.284C138.352 13.052 137.92 14.156 137.776 15.596H145.912C145.864 14.132 145.504 13.028 144.832 12.284C144.16 11.516 143.224 11.132 142.024 11.132Z" fill="url(#paint0_linear)"/>
<defs>
<linearGradient id="paint0_linear" x1="113" y1="2.06122" x2="155.649" y2="49.2155" gradientUnits="userSpaceOnUse">
<stop stop-color="white"/>
<stop offset="1" stop-color="#F2F2F2"/>
</linearGradient>
</defs>
</svg>
