<svg width="248" height="159" viewBox="0 0 248 159" fill="none" xmlns="http://www.w3.org/2000/svg">
<g clip-path="url(#clip0)">
<path d="M217.321 146.805C225.297 138.846 225.297 125.942 217.321 117.983C209.346 110.024 196.416 110.024 188.44 117.983C180.465 125.942 180.465 138.846 188.44 146.805C196.416 154.764 209.346 154.764 217.321 146.805Z" fill="#2F2E41"/>
<path d="M202.767 134.268C206.531 133.437 208.907 129.718 208.074 125.962C207.24 122.206 203.514 119.836 199.75 120.667C195.987 121.498 193.611 125.217 194.444 128.973C195.277 132.729 199.004 135.1 202.767 134.268Z" fill="white"/>
<path d="M198.934 127.936C200.189 127.659 200.981 126.419 200.703 125.167C200.425 123.915 199.183 123.125 197.929 123.402C196.674 123.679 195.882 124.919 196.16 126.171C196.438 127.423 197.68 128.213 198.934 127.936Z" fill="#3F3D56"/>
<path d="M202.074 118.616C193.722 118.6 187.859 117.112 187.873 109.56C187.887 102.009 194.669 95.9001 203.021 95.9156C211.373 95.931 218.132 102.065 218.118 109.616C218.104 117.167 210.426 118.631 202.074 118.616Z" fill="#F68927"/>
<path d="M234.889 135.8C232.494 144.094 225.499 149.9 218.202 154.832C217.183 155.52 216.164 156.193 215.145 156.85C215.138 156.853 215.131 156.86 215.124 156.863C215.075 156.894 215.026 156.926 214.98 156.958C214.769 157.093 214.559 157.228 214.35 157.362L214.465 157.414C214.465 157.414 214.577 157.473 214.454 157.423C214.418 157.408 214.379 157.394 214.343 157.379C210.104 155.673 205.79 153.841 202.541 150.645C199.171 147.326 197.202 142.12 199.027 137.76C199.267 137.189 199.57 136.646 199.93 136.142C200.078 135.931 200.237 135.728 200.403 135.53C201.41 134.304 202.725 133.368 204.215 132.817C205.704 132.267 207.313 132.122 208.877 132.399C210.441 132.675 211.903 133.362 213.113 134.388C214.322 135.415 215.236 136.745 215.76 138.241C216.296 133.26 212.181 129.088 208.22 126.01C204.258 122.933 199.755 119.582 198.989 114.628C198.561 111.872 199.522 109.202 201.271 107.058C201.325 106.993 201.379 106.927 201.435 106.864C203.565 104.367 206.56 102.763 209.822 102.374C215.898 101.744 221.8 104.953 226.214 109.169C233.318 115.952 237.613 126.37 234.889 135.8Z" fill="#E6E6E6"/>
<path d="M223.469 124.952C224.635 126.763 225.53 128.733 226.127 130.802C226.631 132.65 226.855 134.564 226.792 136.479C226.63 140.419 225.521 144.263 223.56 147.687C222.083 150.284 220.283 152.685 218.202 154.832C217.183 155.521 216.164 156.194 215.145 156.851C215.138 156.854 215.131 156.86 215.124 156.863C215.075 156.895 215.026 156.926 214.98 156.958C214.769 157.093 214.559 157.228 214.35 157.362C214.35 157.362 214.577 157.473 214.454 157.423C214.418 157.408 214.379 157.394 214.343 157.379C214.723 154.27 214.35 151.116 213.257 148.181C212.164 145.246 210.382 142.615 208.06 140.508C205.733 138.434 202.947 136.938 199.93 136.142C200.078 135.931 200.237 135.729 200.403 135.53C201.569 135.856 202.703 136.284 203.792 136.81C207.687 138.676 210.877 141.745 212.888 145.561C214.693 149.027 215.47 152.934 215.127 156.824C215.302 156.667 215.476 156.506 215.645 156.347C218.866 153.35 221.727 149.91 223.663 145.94C225.343 142.578 226.169 138.855 226.067 135.099C225.909 131.005 224.275 127.212 221.907 123.91C219.313 120.387 216.248 117.235 212.798 114.541C209.321 111.762 205.516 109.418 201.469 107.561C201.377 107.518 201.306 107.442 201.269 107.349C201.232 107.255 201.233 107.151 201.271 107.058C201.298 106.974 201.357 106.905 201.435 106.864C201.475 106.847 201.519 106.839 201.563 106.841C201.606 106.843 201.649 106.854 201.688 106.875C202.187 107.105 202.684 107.337 203.176 107.58C207.276 109.603 211.109 112.126 214.586 115.091C217.945 117.949 221.106 121.214 223.469 124.952Z" fill="white"/>
<path d="M34.9543 158.787C37.8096 158.787 40.1244 157.92 40.1244 156.852C40.1244 155.783 37.8096 154.917 34.9543 154.917C32.0989 154.917 29.7841 155.783 29.7841 156.852C29.7841 157.92 32.0989 158.787 34.9543 158.787Z" fill="#2F2E41"/>
<path d="M47.3625 158.529C50.2179 158.529 52.5327 157.662 52.5327 156.594C52.5327 155.525 50.2179 154.659 47.3625 154.659C44.5072 154.659 42.1924 155.525 42.1924 156.594C42.1924 157.662 44.5072 158.529 47.3625 158.529Z" fill="#2F2E41"/>
<path d="M63.835 126.008C68.7207 123.197 71.9646 119.678 71.0804 118.147C70.1962 116.616 65.5188 117.654 60.6331 120.465C55.7474 123.276 52.5036 126.795 53.3878 128.326C54.2719 129.856 58.9493 128.819 63.835 126.008Z" fill="#2F2E41"/>
<path d="M59.2487 132.9C61.0553 121.79 53.4947 111.321 42.3616 109.518C31.2285 107.716 20.7387 115.261 18.9321 126.371C17.1254 137.481 24.686 147.949 35.8191 149.752C46.9522 151.555 57.442 144.01 59.2487 132.9Z" fill="#2F2E41"/>
<path d="M35.9883 145.63H29.7841V156.723H35.9883V145.63Z" fill="#2F2E41"/>
<path d="M48.3966 145.63H42.1924V156.723H48.3966V145.63Z" fill="#2F2E41"/>
<path d="M39.6074 131.441C43.4621 131.441 46.587 128.323 46.587 124.476C46.587 120.629 43.4621 117.51 39.6074 117.51C35.7526 117.51 32.6277 120.629 32.6277 124.476C32.6277 128.323 35.7526 131.441 39.6074 131.441Z" fill="white"/>
<path d="M39.6074 126.798C40.8923 126.798 41.9339 125.758 41.9339 124.476C41.9339 123.194 40.8923 122.154 39.6074 122.154C38.3224 122.154 37.2808 123.194 37.2808 124.476C37.2808 125.758 38.3224 126.798 39.6074 126.798Z" fill="#3F3D56"/>
<path d="M19.2804 110.682C17.6314 103.313 22.9025 95.8659 31.0538 94.0495C39.205 92.2331 47.1497 96.735 48.7987 104.105C50.4476 111.475 45.0455 114.193 36.8942 116.009C28.743 117.825 20.9293 118.052 19.2804 110.682Z" fill="#E6E6E6"/>
<path d="M25.3143 124.546C26.073 122.949 22.5574 119.7 17.462 117.289C12.3667 114.877 7.62112 114.216 6.86247 115.812C6.10381 117.409 9.61937 120.658 14.7147 123.069C19.81 125.481 24.5556 126.142 25.3143 124.546Z" fill="#2F2E41"/>
<path d="M29.0591 136.987C29.0591 138.982 34.2056 142.921 39.9164 142.921C45.6271 142.921 50.9816 137.305 50.9816 135.311C50.9816 133.316 45.6271 135.698 39.9164 135.698C34.2056 135.698 29.0591 134.993 29.0591 136.987Z" fill="white"/>
<path d="M110.3 158.787C113.156 158.787 115.47 157.92 115.47 156.852C115.47 155.783 113.156 154.917 110.3 154.917C107.445 154.917 105.13 155.783 105.13 156.852C105.13 157.92 107.445 158.787 110.3 158.787Z" fill="#2F2E41"/>
<path d="M97.8919 158.529C100.747 158.529 103.062 157.662 103.062 156.594C103.062 155.525 100.747 154.659 97.8919 154.659C95.0365 154.659 92.7217 155.525 92.7217 156.594C92.7217 157.662 95.0365 158.529 97.8919 158.529Z" fill="#2F2E41"/>
<path d="M91.8667 128.326C92.7508 126.795 89.507 123.276 84.6213 120.465C79.7356 117.654 75.0582 116.617 74.174 118.147C73.2898 119.678 76.5337 123.197 81.4194 126.008C86.3051 128.819 90.9825 129.856 91.8667 128.326Z" fill="#2F2E41"/>
<path d="M106.164 150.016C117.443 150.016 126.586 140.891 126.586 129.635C126.586 118.38 117.443 109.255 106.164 109.255C94.8853 109.255 85.7421 118.38 85.7421 129.635C85.7421 140.891 94.8853 150.016 106.164 150.016Z" fill="#2F2E41"/>
<path d="M115.47 145.63H109.266V156.723H115.47V145.63Z" fill="#2F2E41"/>
<path d="M103.062 145.63H96.8579V156.723H103.062V145.63Z" fill="#2F2E41"/>
<path d="M101.379 131.441C105.234 131.441 108.359 128.323 108.359 124.476C108.359 120.629 105.234 117.51 101.379 117.51C97.5246 117.51 94.3997 120.629 94.3997 124.476C94.3997 128.323 97.5246 131.441 101.379 131.441Z" fill="white"/>
<path d="M99.6976 125.165C100.609 124.256 100.615 122.787 99.7107 121.884C98.8063 120.98 97.3341 120.985 96.4225 121.894C95.5109 122.803 95.5051 124.272 96.4095 125.175C97.3138 126.079 98.786 126.074 99.6976 125.165Z" fill="#3F3D56"/>
<path d="M108.36 116.009C100.209 114.193 94.8068 111.475 96.4558 104.105C98.1047 96.735 106.049 92.2331 114.201 94.0495C122.352 95.8659 127.623 103.313 125.974 110.682C124.325 118.052 116.511 117.825 108.36 116.009Z" fill="#F68927"/>
<path d="M127.52 145.17C129.231 144.717 129.444 139.94 127.996 134.501C126.549 129.061 123.988 125.02 122.277 125.473C120.566 125.927 120.353 130.704 121.8 136.143C123.248 141.582 125.809 145.624 127.52 145.17Z" fill="#2F2E41"/>
<path d="M101.537 135.698C97.7882 135.698 94.2728 133.316 94.2728 135.311C94.2728 137.306 97.7882 142.921 101.537 142.921C105.287 142.921 108.665 138.983 108.665 136.988C108.665 134.993 105.287 135.698 101.537 135.698Z" fill="white"/>
<path d="M75.1453 95.8443H73.3316C71.707 95.8425 70.1494 95.1976 69.0006 94.0512C67.8518 92.9047 67.2056 91.3503 67.2038 89.729V88.2096C67.2038 84.446 67.9183 81.2948 69.3277 78.8435C71.0356 75.9921 73.0282 73.3203 75.2749 70.8691C76.7665 69.3722 78.1199 67.7443 79.3187 66.005C80.1789 64.6538 80.6229 63.0805 80.5959 61.4799C80.5959 57.7046 78.1312 55.8693 73.0608 55.8693C70.2481 55.901 67.4533 56.3196 64.7553 57.1133C63.7148 57.4097 62.6196 57.4611 61.5558 57.2633C60.492 57.0656 59.4888 56.6242 58.625 55.9738C57.7612 55.3235 57.0605 54.4819 56.5779 53.5154C56.0954 52.5489 55.8442 51.4838 55.8441 50.404V47.3281C55.8382 46.0039 56.2172 44.7065 56.9354 43.5931C57.6535 42.4796 58.6798 41.598 59.89 41.055C64.655 39.0256 69.7937 38.0168 74.9739 38.0937C80.4007 38.0937 85.2995 39.0034 89.5348 40.7971C93.7777 42.595 97.1299 45.1302 99.498 48.3325C101.859 51.5121 103.114 55.3747 103.072 59.332C103.072 63.5814 101.909 67.2826 99.6164 70.3326C97.3487 73.3516 94.0979 76.6567 89.9543 80.1566C87.7711 81.9685 85.7023 83.9135 83.7598 85.9803C82.5051 87.329 81.6183 88.9765 81.1844 90.7651C80.9427 92.1879 80.2032 93.479 79.0974 94.409C77.9917 95.339 76.5913 95.8476 75.1453 95.8443Z" fill="#F68927"/>
<path d="M74.1369 124.602H73.8978C70.8869 124.6 68 123.405 65.8716 121.28C63.7433 119.155 62.5477 116.273 62.5477 113.268C62.5477 110.264 63.7433 107.382 65.8716 105.257C68 103.131 70.8869 101.936 73.8978 101.934H74.1369C75.629 101.933 77.1067 102.226 78.4855 102.795C79.8642 103.364 81.1171 104.199 82.1725 105.251C83.2279 106.304 84.0652 107.554 84.6364 108.929C85.2076 110.305 85.5016 111.779 85.5016 113.268C85.5016 114.757 85.2076 116.232 84.6364 117.607C84.0652 118.983 83.2279 120.233 82.1725 121.285C81.1171 122.338 79.8642 123.173 78.4855 123.742C77.1067 124.311 75.629 124.603 74.1369 124.602Z" fill="#F68927"/>
<path d="M147.946 159H0.474187C0.348425 159 0.227821 158.95 0.138893 158.861C0.0499658 158.773 0 158.652 0 158.527C0 158.401 0.0499658 158.281 0.138893 158.192C0.227821 158.103 0.348425 158.053 0.474187 158.053H147.946C148.072 158.053 148.193 158.103 148.282 158.192C148.371 158.281 148.421 158.401 148.421 158.527C148.421 158.652 148.371 158.773 148.282 158.861C148.193 158.95 148.072 159 147.946 159Z" fill="#CCCCCC"/>
<path d="M247.526 159H168.811C168.685 159 168.564 158.95 168.475 158.861C168.386 158.773 168.337 158.652 168.337 158.527C168.337 158.401 168.386 158.281 168.475 158.192C168.564 158.103 168.685 158.053 168.811 158.053H247.526C247.652 158.053 247.772 158.103 247.861 158.192C247.95 158.281 248 158.401 248 158.527C248 158.652 247.95 158.773 247.861 158.861C247.772 158.95 247.652 159 247.526 159Z" fill="#CCCCCC"/>
<path d="M198.671 145.177C204.309 145.067 208.852 143.546 208.817 141.78C208.782 140.013 204.184 138.671 198.545 138.781C192.907 138.891 188.364 140.412 188.399 142.178C188.434 143.945 193.032 145.287 198.671 145.177Z" fill="#2F2E41"/>
<path d="M193.545 70.5089H181.216C180.588 70.5081 179.985 70.2586 179.54 69.8151C179.096 69.3715 178.846 68.7701 178.845 68.1428V55.8392C178.846 55.2119 179.096 54.6105 179.54 54.167C179.985 53.7234 180.588 53.4739 181.216 53.4731H193.545C194.174 53.4739 194.776 53.7234 195.221 54.167C195.665 54.6105 195.915 55.2119 195.916 55.8392V68.1428C195.915 68.7701 195.665 69.3715 195.221 69.8151C194.776 70.2586 194.174 70.5081 193.545 70.5089ZM181.216 54.4196C180.839 54.42 180.477 54.5697 180.211 54.8358C179.944 55.102 179.794 55.4628 179.794 55.8392V68.1428C179.794 68.5192 179.944 68.88 180.211 69.1462C180.477 69.4123 180.839 69.562 181.216 69.5624H193.545C193.922 69.562 194.284 69.4123 194.55 69.1462C194.817 68.88 194.967 68.5192 194.968 68.1428V55.8392C194.967 55.4628 194.817 55.102 194.55 54.8358C194.284 54.5697 193.922 54.42 193.545 54.4196H181.216Z" fill="#F2F2F2"/>
<path d="M199.235 62.4642H186.906C186.278 62.4635 185.675 62.2139 185.231 61.7704C184.786 61.3268 184.536 60.7254 184.535 60.0981V47.7945C184.536 47.1672 184.786 46.5658 185.231 46.1223C185.675 45.6787 186.278 45.4292 186.906 45.4285H199.235C199.864 45.4292 200.466 45.6787 200.911 46.1223C201.355 46.5658 201.605 47.1672 201.606 47.7945V60.0981C201.605 60.7254 201.355 61.3268 200.911 61.7704C200.466 62.2139 199.864 62.4635 199.235 62.4642ZM186.906 46.3749C186.529 46.3753 186.168 46.525 185.901 46.7912C185.634 47.0573 185.484 47.4182 185.484 47.7945V60.0981C185.484 60.4745 185.634 60.8354 185.901 61.1015C186.168 61.3676 186.529 61.5173 186.906 61.5178H199.235C199.612 61.5173 199.974 61.3676 200.241 61.1015C200.507 60.8354 200.657 60.4745 200.658 60.0981V47.7945C200.657 47.4182 200.507 47.0573 200.241 46.7912C199.974 46.525 199.612 46.3753 199.235 46.3749H186.906Z" fill="#F2F2F2"/>
<path d="M102.027 23.1876H89.698C89.0694 23.1869 88.4667 22.9373 88.0222 22.4938C87.5778 22.0502 87.3277 21.4488 87.327 20.8215V8.51793C87.3277 7.89063 87.5778 7.28923 88.0222 6.84566C88.4667 6.40209 89.0694 6.15257 89.698 6.15186H102.027C102.655 6.15257 103.258 6.40209 103.703 6.84566C104.147 7.28923 104.397 7.89063 104.398 8.51793V20.8215C104.397 21.4488 104.147 22.0502 103.703 22.4938C103.258 22.9373 102.655 23.1869 102.027 23.1876ZM89.698 7.09828C89.3208 7.09869 88.9592 7.2484 88.6925 7.51454C88.4258 7.78069 88.2758 8.14154 88.2754 8.51793V20.8215C88.2758 21.1979 88.4258 21.5587 88.6925 21.8249C88.9592 22.091 89.3208 22.2407 89.698 22.2411H102.027C102.404 22.2407 102.766 22.091 103.032 21.8249C103.299 21.5587 103.449 21.1979 103.449 20.8215V8.51793C103.449 8.14154 103.299 7.78069 103.032 7.51454C102.766 7.2484 102.404 7.09869 102.027 7.09828H89.698Z" fill="#F2F2F2"/>
<path d="M94.4398 17.0357H82.111C81.4824 17.035 80.8797 16.7855 80.4353 16.3419C79.9908 15.8983 79.7407 15.2969 79.74 14.6696V2.36607C79.7407 1.73877 79.9908 1.13737 80.4353 0.693806C80.8797 0.250237 81.4824 0.000717654 82.111 0H94.4398C95.0684 0.000717654 95.6711 0.250237 96.1155 0.693806C96.56 1.13737 96.8101 1.73877 96.8108 2.36607V14.6696C96.8101 15.2969 96.56 15.8983 96.1155 16.3419C95.6711 16.7855 95.0684 17.035 94.4398 17.0357ZM82.111 0.946429C81.7338 0.946839 81.3722 1.09654 81.1055 1.36269C80.8388 1.62883 80.6888 1.98968 80.6884 2.36607V14.6696C80.6888 15.046 80.8388 15.4069 81.1055 15.673C81.3722 15.9392 81.7338 16.0889 82.111 16.0893H94.4398C94.817 16.0889 95.1786 15.9392 95.4453 15.673C95.712 15.4069 95.862 15.046 95.8624 14.6696V2.36607C95.862 1.98968 95.712 1.62883 95.4453 1.36269C95.1786 1.09654 94.817 0.946839 94.4398 0.946429H82.111Z" fill="#F2F2F2"/>
<path d="M152.319 89.7391C154.012 89.7391 155.385 88.369 155.385 86.6789C155.385 84.9888 154.012 83.6187 152.319 83.6187C150.625 83.6187 149.252 84.9888 149.252 86.6789C149.252 88.369 150.625 89.7391 152.319 89.7391Z" fill="#F2F2F2"/>
<path d="M29.03 78.8551C30.7236 78.8551 32.0965 77.485 32.0965 75.7948C32.0965 74.1047 30.7236 72.7346 29.03 72.7346C27.3364 72.7346 25.9635 74.1047 25.9635 75.7948C25.9635 77.485 27.3364 78.8551 29.03 78.8551Z" fill="#F2F2F2"/>
<path d="M235.776 105.355C237.469 105.355 238.842 103.985 238.842 102.295C238.842 100.605 237.469 99.2346 235.776 99.2346C234.082 99.2346 232.709 100.605 232.709 102.295C232.709 103.985 234.082 105.355 235.776 105.355Z" fill="#F2F2F2"/>
</g>
<defs>
<clipPath id="clip0">
<rect width="248" height="159" fill="white"/>
</clipPath>
</defs>
</svg>
