<svg width="934" height="630" viewBox="0 0 934 630" fill="none" xmlns="http://www.w3.org/2000/svg">
<g clip-path="url(#clip0)">
<path d="M603.482 142.659C621.155 142.659 635.482 128.332 635.482 110.659C635.482 92.986 621.155 78.6591 603.482 78.6591C585.809 78.6591 571.482 92.986 571.482 110.659C571.482 128.332 585.809 142.659 603.482 142.659Z" fill="#F2F2F2"/>
<path d="M726.643 335.053L179.008 0L-3.33786e-06 292.584L547.635 627.636L726.643 335.053Z" fill="#F2F2F2"/>
<path d="M677.982 427.859C672.982 416.359 665.282 406.259 649.882 397.759C641.922 393.259 633.373 389.893 624.482 387.759C630.464 384.98 635.966 381.267 640.782 376.759C647.862 370.43 653.228 362.416 656.382 353.459C659.285 344.357 660.472 334.795 659.882 325.259C658.782 308.459 655.482 292.159 646.682 280.459C637.882 268.759 625.482 259.759 609.082 253.459C596.482 248.659 583.582 245.659 563.582 244.559V180.659L523.582 205.659V244.659H491.582V203.659L450.582 180.659V244.659H363.482L391.482 292.659C400.132 292.669 405.992 293.469 408.982 294.959C411.773 296.154 414.068 298.272 415.482 300.959C416.782 303.459 417.382 309.359 417.382 318.459V491.659C417.382 500.659 416.782 506.459 415.482 509.059C414.182 511.659 413.482 513.959 410.382 515.359C407.282 516.759 407.182 516.659 398.582 516.659H398.482L363.482 564.659H450.482V628.659H491.482V564.659H523.482V628.659H563.482V564.259C589.482 562.959 607.982 559.559 622.882 553.959C642.182 546.759 656.982 536.259 667.582 522.459C678.182 508.659 682.482 487.559 683.382 471.259C684.082 456.759 682.482 438.059 677.982 427.859ZM491.482 298.659H491.492V297.329H519.452C535.182 297.329 587.602 292.089 588.472 334.899C589.352 377.709 519.452 375.959 519.452 375.959H491.492V372.659H491.482V298.659ZM491.482 420.659H523.482C529.982 420.659 552.342 421.649 560.482 422.019C563.801 422.14 567.086 422.725 570.242 423.759C571.392 424.149 572.482 424.589 573.662 425.079C578.594 426.673 583.247 429.028 587.452 432.059C590.193 433.87 592.605 436.136 594.582 438.759C595.438 439.943 596.226 441.175 596.942 442.449C598.835 445.653 600.241 449.121 601.112 452.739C602.065 456.234 602.559 459.837 602.582 463.459C602.582 471.249 601.142 477.699 597.592 483.159C592.782 491.219 584.892 496.929 576.012 500.959C553.052 511.399 523.482 510.659 523.482 510.659H491.482V420.659Z" fill="#3F3D56"/>
<path opacity="0.3" d="M612.141 112.006C611.838 111.256 611.28 110.638 610.566 110.259C610.122 109.998 609.642 109.803 609.142 109.678C609.479 109.516 609.788 109.3 610.056 109.04C610.455 108.669 610.756 108.204 610.931 107.688C611.094 107.158 611.16 106.604 611.127 106.051C611.124 105.133 610.868 104.233 610.387 103.451C609.85 102.736 609.118 102.192 608.279 101.884C607.464 101.568 606.602 101.393 605.728 101.368V97.6591L603.486 99.11V101.373H601.692V98.9939L599.394 97.6591V101.373H594.511L596.08 104.159C596.413 104.136 596.747 104.182 597.061 104.293C597.219 104.363 597.348 104.486 597.426 104.641C597.521 104.97 597.558 105.314 597.532 105.656V115.708C597.557 116.048 597.521 116.39 597.426 116.718C597.353 116.869 597.314 117.002 597.14 117.084C596.966 117.165 596.961 117.159 596.478 117.159H596.473L594.511 119.945H599.388V123.659H601.686V119.945H603.48V123.659H605.723V119.922C606.857 119.901 607.982 119.7 609.053 119.324C610.047 118.969 610.917 118.334 611.558 117.496C612.118 116.604 612.424 115.577 612.444 114.524C612.503 113.673 612.401 112.818 612.141 112.006ZM601.686 104.507H601.687V104.43H603.254C604.136 104.43 607.075 104.126 607.124 106.611C607.173 109.095 603.254 108.994 603.254 108.994H601.687V108.802H601.686V104.507ZM601.686 111.588H603.48C603.845 111.588 605.098 111.645 605.555 111.667C605.741 111.674 605.925 111.708 606.102 111.768C606.166 111.79 606.227 111.816 606.293 111.844C606.571 111.937 606.832 112.074 607.066 112.249C607.221 112.355 607.356 112.487 607.466 112.638C607.636 112.884 607.76 113.159 607.832 113.45C607.886 113.653 607.913 113.862 607.915 114.072C607.933 114.472 607.836 114.869 607.635 115.215C607.347 115.675 606.925 116.036 606.425 116.248C605.491 116.631 604.49 116.822 603.48 116.811H601.686V111.588Z" fill="#F68927"/>
<path d="M798.13 475.793C804.608 475.793 809.86 470.541 809.86 464.063C809.86 457.585 804.608 452.334 798.13 452.334C791.653 452.334 786.401 457.585 786.401 464.063C786.401 470.541 791.653 475.793 798.13 475.793Z" fill="#FF6584"/>
<path d="M890.596 591.744V458.194" stroke="#3F3D56" stroke-width="2" stroke-miterlimit="10"/>
<path d="M890.596 477.08C901.026 477.08 909.482 468.625 909.482 458.194C909.482 447.764 901.026 439.309 890.596 439.309C880.166 439.309 871.71 447.764 871.71 458.194C871.71 468.625 880.166 477.08 890.596 477.08Z" fill="#3F3D56"/>
<path d="M853.401 532.97C826.122 574.804 833.596 628.012 833.596 628.012C833.596 628.012 885.3 613.393 912.58 571.559C939.859 529.724 932.385 476.516 932.385 476.516C932.385 476.516 880.681 491.135 853.401 532.97Z" fill="#3F3D56"/>
<path d="M833.451 627.526C833.451 627.526 832.787 627.42 831.565 627.173C830.59 626.975 829.248 626.692 827.608 626.304C812.956 622.849 774.001 611.171 748.532 580.467C716.655 542.02 717.998 488.306 717.998 488.306C717.998 488.306 766.738 496.226 798.855 530.752C800.246 532.235 801.601 533.773 802.917 535.365C830.653 568.817 833.239 613.827 833.444 624.954C833.472 626.622 833.451 627.526 833.451 627.526Z" fill="#F68927"/>
<path d="M813.791 532.97C841.071 574.804 833.596 628.012 833.596 628.012C833.596 628.012 781.893 613.393 754.613 571.559C727.333 529.724 734.808 476.516 734.808 476.516C734.808 476.516 786.512 491.135 813.791 532.97Z" stroke="#3F3D56" stroke-width="2" stroke-miterlimit="10"/>
<path opacity="0.1" d="M833.444 624.954C832.723 625.823 832.088 626.565 831.565 627.173C830.406 628.494 829.749 629.186 829.749 629.186C829.749 629.186 828.951 628.183 827.609 626.304C820.24 616.032 796.537 579.506 798.367 537.315C798.466 535.104 798.629 532.916 798.855 530.752C800.246 532.235 801.601 533.773 802.917 535.365C830.654 568.817 833.239 613.827 833.444 624.954Z" fill="black"/>
<path d="M873.893 540.366C871.736 590.263 834.697 629.187 834.697 629.187C834.697 629.187 801.154 587.212 803.31 537.316C805.466 487.42 842.506 448.496 842.506 448.496C842.506 448.496 876.049 490.47 873.893 540.366Z" fill="#F68927"/>
<path d="M834.697 627.774L842.84 450.531" stroke="#3F3D56" stroke-width="2" stroke-miterlimit="10"/>
<path d="M57.4717 627.968H903.492" stroke="#3F3D56" stroke-width="2" stroke-miterlimit="10"/>
<path d="M237.156 411.814C260.755 411.814 279.885 392.683 279.885 369.084C279.885 345.485 260.755 326.355 237.156 326.355C213.557 326.355 194.426 345.485 194.426 369.084C194.426 392.683 213.557 411.814 237.156 411.814Z" fill="#F68927"/>
<path d="M164.526 512.378C188.125 512.378 207.256 493.248 207.256 469.648C207.256 446.049 188.125 426.919 164.526 426.919C140.927 426.919 121.796 446.049 121.796 469.648C121.796 493.248 140.927 512.378 164.526 512.378Z" fill="#F68927"/>
<path d="M75.1356 592.69C98.7346 592.69 117.865 573.559 117.865 549.96C117.865 526.361 98.7346 507.23 75.1356 507.23C51.5366 507.23 32.4058 526.361 32.4058 549.96C32.4058 573.559 51.5366 592.69 75.1356 592.69Z" fill="#F68927"/>
<path d="M75.0977 627.235V549.725" stroke="#3F3D56" stroke-width="2" stroke-miterlimit="10"/>
<path d="M75.0976 560.686C81.1512 560.686 86.0587 555.779 86.0587 549.725C86.0587 543.671 81.1512 538.764 75.0976 538.764C69.044 538.764 64.1366 543.671 64.1366 549.725C64.1366 555.779 69.044 560.686 75.0976 560.686Z" fill="#3F3D56"/>
<path d="M75.0976 597.496C75.0976 597.496 73.5318 563.818 41.4316 567.732L75.0976 597.496Z" fill="#3F3D56"/>
<path d="M237.182 627.779V369.241" stroke="#3F3D56" stroke-width="2" stroke-miterlimit="10"/>
<path d="M237.182 380.08C243.236 380.08 248.143 375.172 248.143 369.119C248.143 363.065 243.236 358.158 237.182 358.158C231.129 358.158 226.221 363.065 226.221 369.119C226.221 375.172 231.129 380.08 237.182 380.08Z" fill="#3F3D56"/>
<path d="M203.516 567.133C209.57 567.133 214.477 562.226 214.477 556.172C214.477 550.119 209.57 545.211 203.516 545.211C197.463 545.211 192.555 550.119 192.555 556.172C192.555 562.226 197.463 567.133 203.516 567.133Z" fill="#3F3D56"/>
<path d="M237.182 425.108C237.182 425.108 235.616 391.43 203.516 395.345L237.182 425.108Z" fill="#3F3D56"/>
<path d="M237.182 520.583C237.182 520.583 235.616 486.904 203.516 490.819L237.182 520.583Z" fill="#3F3D56"/>
<path d="M237.182 624.766C237.182 624.766 244.229 559.304 203.516 556.172" stroke="#3F3D56" stroke-width="2" stroke-miterlimit="10"/>
<path d="M270.853 567.133C276.907 567.133 281.814 562.226 281.814 556.172C281.814 550.119 276.907 545.211 270.853 545.211C264.8 545.211 259.892 550.119 259.892 556.172C259.892 562.226 264.8 567.133 270.853 567.133Z" fill="#3F3D56"/>
<path d="M237.187 624.766C237.187 624.766 230.141 559.304 270.853 556.172" stroke="#3F3D56" stroke-width="2" stroke-miterlimit="10"/>
<path d="M271.521 464.315C277.574 464.315 282.482 459.407 282.482 453.354C282.482 447.3 277.574 442.393 271.521 442.393C265.467 442.393 260.56 447.3 260.56 453.354C260.56 459.407 265.467 464.315 271.521 464.315Z" fill="#3F3D56"/>
<path d="M237.855 518.456C237.855 518.456 230.808 456.485 271.521 453.354" stroke="#3F3D56" stroke-width="2" stroke-miterlimit="10"/>
<path d="M164.565 627.414V469.601" stroke="#3F3D56" stroke-width="2" stroke-miterlimit="10"/>
<path d="M164.565 480.562C170.619 480.562 175.526 475.654 175.526 469.601C175.526 463.547 170.619 458.64 164.565 458.64C158.511 458.64 153.604 463.547 153.604 469.601C153.604 475.654 158.511 480.562 164.565 480.562Z" fill="#3F3D56"/>
<path d="M164.565 514.24C164.565 514.24 162.999 480.562 130.899 484.476L164.565 514.24Z" fill="#3F3D56"/>
<path d="M164.565 624.401C164.565 624.401 171.611 559.638 130.899 556.506" stroke="#3F3D56" stroke-width="2" stroke-miterlimit="10"/>
<path d="M130.899 567.467C136.953 567.467 141.86 562.56 141.86 556.506C141.86 550.452 136.953 545.545 130.899 545.545C124.845 545.545 119.938 550.452 119.938 556.506C119.938 562.56 124.845 567.467 130.899 567.467Z" fill="#3F3D56"/>
<path d="M766.482 387.659C776.423 387.659 784.482 379.6 784.482 369.659C784.482 359.718 776.423 351.659 766.482 351.659C756.541 351.659 748.482 359.718 748.482 369.659C748.482 379.6 756.541 387.659 766.482 387.659Z" fill="#F2F2F2"/>
<path opacity="0.1" d="M576.012 500.959C553.052 511.399 523.482 510.659 523.482 510.659H491.482V504.549C504.522 500.909 522.552 498.659 542.482 498.659C553.699 498.62 564.905 499.389 576.012 500.959Z" fill="black"/>
<path opacity="0.1" d="M614.482 518.659C614.482 529.709 582.242 538.659 542.482 538.659C502.722 538.659 470.482 529.709 470.482 518.659C470.482 513.149 478.502 508.159 491.482 504.549V510.659H523.482C523.482 510.659 553.052 511.399 576.012 500.959C598.882 504.299 614.482 510.969 614.482 518.659Z" fill="black"/>
<path d="M551.678 394.129H521.043V424.818H551.678V394.129Z" fill="#2F2E41"/>
<path d="M532.435 415.832C532.435 415.832 534.971 424.707 530.534 425.341C527.78 425.77 525.17 426.857 522.927 428.51L531.168 439.287H546.382L555.891 429.778C555.891 429.778 543.212 420.269 545.748 414.564C548.284 408.859 532.435 415.832 532.435 415.832Z" fill="#FFB9B9"/>
<path opacity="0.1" d="M532.435 415.832C532.435 415.832 534.971 424.707 530.534 425.341C527.78 425.77 525.17 426.857 522.927 428.51L531.168 439.287H546.382L555.891 429.778C555.891 429.778 543.212 420.269 545.748 414.564C548.284 408.859 532.435 415.832 532.435 415.832Z" fill="black"/>
<path d="M536.239 526.136L550.82 531.207L560.962 531.841L560.328 522.966L539.409 516.779L536.239 526.136Z" fill="#FFB9B9"/>
<path d="M554.94 524.234C554.94 524.234 554.94 533.109 556.208 533.109C557.476 533.109 574.592 531.207 579.663 533.109C584.735 535.011 592.342 528.038 588.538 524.234C584.735 520.431 578.531 514.725 574.659 515.993C570.788 517.261 554.94 520.43 554.94 520.43L554.94 524.234Z" fill="#2F2E41"/>
<path d="M508.346 515.993C508.346 515.993 500.739 531.207 505.81 532.475C510.882 533.743 516.587 531.841 517.221 531.207C517.855 530.573 526.73 528.038 527.998 529.306C529.266 530.573 529.266 524.234 529.266 524.234L508.346 515.993Z" fill="#2F2E41"/>
<path d="M514.685 495.073C514.685 495.073 502.641 511.555 511.516 515.993C520.391 520.431 562.864 520.431 566.034 515.993C569.204 511.555 570.471 497.609 566.034 496.341C561.596 495.073 514.685 495.073 514.685 495.073Z" fill="#2F2E41"/>
<path opacity="0.2" d="M514.685 495.073C514.685 495.073 502.641 511.555 511.516 515.993C520.391 520.431 562.864 520.431 566.034 515.993C569.204 511.555 570.471 497.609 566.034 496.341C561.596 495.073 514.685 495.073 514.685 495.073Z" fill="black"/>
<path d="M537.507 420.269C545.56 420.269 552.087 413.741 552.087 405.689C552.087 397.636 545.56 391.108 537.507 391.108C529.454 391.108 522.927 397.636 522.927 405.689C522.927 413.741 529.454 420.269 537.507 420.269Z" fill="#FFB9B9"/>
<path d="M514.685 428.51L527.364 425.975C527.364 425.975 530.534 436.118 540.677 434.216C550.819 432.314 553.355 425.975 553.355 425.975C553.355 425.975 560.962 429.144 561.596 429.144C562.23 429.144 570.471 432.314 570.471 434.216C570.471 436.118 560.962 455.136 560.962 455.136L562.23 489.368L515.319 488.1L518.489 454.502L514.685 428.51Z" fill="#F68927"/>
<path d="M507.712 444.993C507.712 444.993 503.909 478.591 506.444 481.127C508.98 483.662 519.123 490.636 519.123 490.636V483.029L514.051 473.52L519.123 451.332L507.712 444.993Z" fill="#FFB9B9"/>
<path d="M573.324 444.042C573.324 444.042 571.105 478.591 571.105 479.859C571.105 481.127 565.4 485.564 563.498 485.564C561.596 485.564 560.328 482.395 560.328 482.395L564.766 477.323L561.596 451.332L573.324 444.042Z" fill="#FFB9B9"/>
<path d="M567.302 492.537C567.302 492.537 595.829 476.689 596.463 492.537C597.097 508.386 581.882 514.725 581.882 514.725C581.882 514.725 542.578 526.511 540.994 522.203C539.409 517.895 536.239 510.922 538.775 510.288C541.31 509.654 544.48 508.386 545.748 509.654C547.016 510.922 562.864 500.145 562.864 500.145L567.302 492.537Z" fill="#2F2E41"/>
<path opacity="0.2" d="M580.614 490.636C580.614 490.636 574.909 493.171 573.007 495.073C571.105 496.975 562.864 500.145 562.864 500.145" stroke="black" stroke-width="2" stroke-miterlimit="10"/>
<path d="M518.489 429.778L514.685 428.51C514.685 428.51 500.739 443.091 505.176 446.894C509.614 450.698 512.15 451.966 513.417 453.234C514.685 454.502 521.025 455.135 521.025 455.135L518.489 429.778Z" fill="#F68927"/>
<path d="M564.766 432.948L570.471 434.216C570.471 434.216 574.909 443.725 576.177 444.993C577.445 446.26 574.275 445.627 572.373 448.162C570.471 450.698 568.57 455.136 564.766 455.136C560.962 455.136 555.891 448.796 555.891 448.796L564.766 432.948Z" fill="#F68927"/>
<path d="M515.953 498.243C515.953 498.243 491.864 481.127 483.623 493.805C475.382 506.484 519.123 523.6 525.462 526.136C531.802 528.672 537.507 531.207 537.507 531.207C537.507 531.207 543.212 517.261 543.212 514.725C543.212 512.189 538.775 512.189 537.507 512.189C536.239 512.189 530.534 510.922 529.266 509.02C527.998 507.118 515.953 498.243 515.953 498.243Z" fill="#2F2E41"/>
<path opacity="0.2" d="M502.641 493.805C502.641 493.805 508.98 498.877 514.685 500.145C520.391 501.413 522.293 504.582 522.293 504.582" stroke="black" stroke-width="2" stroke-miterlimit="10"/>
<path d="M511.58 469.97L512.087 496.811C512.103 497.697 512.47 498.541 513.106 499.159C513.743 499.776 514.597 500.117 515.484 500.107L565.433 499.546C566.285 499.536 567.1 499.204 567.716 498.617C568.332 498.029 568.701 497.229 568.75 496.38L570.266 470.1C570.293 469.643 570.226 469.186 570.069 468.756C569.912 468.326 569.669 467.933 569.355 467.6C569.041 467.267 568.662 467.002 568.242 466.821C567.822 466.64 567.369 466.546 566.912 466.546H514.94C514.493 466.546 514.051 466.635 513.639 466.808C513.228 466.981 512.854 467.234 512.542 467.553C512.229 467.872 511.983 468.25 511.818 468.665C511.653 469.08 511.572 469.523 511.58 469.97Z" fill="#575A89"/>
<path d="M505.803 428.67C507.163 425.668 508.991 422.851 509.862 419.672C510.907 415.862 510.5 411.831 510.376 407.883C510.177 404.391 510.475 400.888 511.259 397.48C512.056 394.055 513.845 390.941 516.402 388.527C523.045 382.597 535.203 382.171 543.316 384.64C546.514 385.613 549.92 387.467 550.713 390.714C550.833 391.204 550.887 391.71 551.02 392.196C551.684 394.614 554.158 396.144 555.05 398.487C556.205 401.518 554.425 404.814 554.192 408.048C553.921 411.825 555.777 415.393 557.607 418.708C558.695 420.678 559.826 422.777 559.718 425.026C559.628 426.255 559.254 427.447 558.625 428.508C557.46 430.432 555.824 432.027 553.873 433.146C551.922 434.265 549.718 434.869 547.469 434.903C546.007 435.02 544.546 434.675 543.291 433.917C541.311 432.553 540.731 429.808 541.143 427.44C541.556 425.072 542.758 422.931 543.7 420.719C543.989 420.041 544.25 419.351 544.49 418.653C547.41 417.023 549.661 414.413 550.844 411.285C552.027 408.156 552.067 404.71 550.956 401.556C549.845 398.401 547.655 395.74 544.773 394.043C541.89 392.346 538.501 391.722 535.203 392.281C531.906 392.841 528.912 394.547 526.75 397.1C524.589 399.652 523.399 402.887 523.39 406.231C523.382 409.576 524.555 412.816 526.704 415.38C528.853 417.943 531.838 419.665 535.133 420.241C535.843 423.818 535.52 427.524 534.202 430.925C533.004 433.693 531.499 436.317 529.715 438.748C528.986 439.995 528.014 441.083 526.857 441.947C526.094 442.399 525.276 442.748 524.422 442.987C520.841 444.139 517.071 445.065 513.345 444.547C509.62 444.029 505.93 441.782 504.661 438.242C503.549 435.139 504.442 431.672 505.803 428.67Z" fill="#2F2E41"/>
<path d="M536.801 406.27C545.346 406.27 552.274 402.345 552.274 397.502C552.274 392.659 545.346 388.734 536.801 388.734C528.255 388.734 521.327 392.659 521.327 397.502C521.327 402.345 528.255 406.27 536.801 406.27Z" fill="#2F2E41"/>
<path opacity="0.3" d="M773.211 370.705C772.975 370.123 772.542 369.642 771.987 369.348C771.641 369.146 771.269 368.994 770.88 368.897C771.142 368.771 771.382 368.603 771.59 368.401C771.901 368.112 772.134 367.751 772.27 367.35C772.397 366.939 772.448 366.508 772.422 366.078C772.42 365.365 772.221 364.666 771.847 364.058C771.43 363.503 770.862 363.08 770.21 362.84C769.576 362.595 768.906 362.459 768.227 362.439V359.557L766.485 360.685V362.443H765.091V360.594L763.305 359.557V362.443H759.511L760.731 364.608C760.989 364.59 761.248 364.626 761.493 364.712C761.616 364.767 761.716 364.862 761.776 364.982C761.85 365.239 761.878 365.506 761.859 365.772V373.583C761.878 373.847 761.85 374.113 761.776 374.367C761.719 374.484 761.689 374.588 761.554 374.651C761.419 374.714 761.414 374.71 761.04 374.71H761.035L759.511 376.875H763.301V379.761H765.087V376.875H766.481V379.761H768.223V376.857C769.105 376.841 769.978 376.684 770.811 376.392C771.583 376.116 772.259 375.623 772.758 374.972C773.193 374.279 773.43 373.48 773.446 372.663C773.492 372.001 773.412 371.337 773.211 370.705ZM765.087 364.879H765.087V364.819H766.305C766.99 364.819 769.274 364.582 769.312 366.513C769.35 368.444 766.305 368.365 766.305 368.365H765.087V368.216H765.087V364.879ZM765.087 370.381H766.481C766.764 370.381 767.738 370.425 768.092 370.442C768.237 370.447 768.38 370.474 768.518 370.52C768.568 370.538 768.615 370.558 768.667 370.58C768.882 370.652 769.085 370.759 769.267 370.895C769.387 370.977 769.492 371.079 769.578 371.197C769.71 371.388 769.806 371.602 769.862 371.827C769.904 371.985 769.925 372.148 769.926 372.311C769.941 372.622 769.865 372.93 769.709 373.199C769.485 373.557 769.157 373.837 768.769 374.002C768.043 374.299 767.265 374.448 766.481 374.439H765.087V370.381Z" fill="#F68927"/>
<path d="M64.4819 450.659C74.423 450.659 82.4819 442.6 82.4819 432.659C82.4819 422.718 74.423 414.659 64.4819 414.659C54.5407 414.659 46.4819 422.718 46.4819 432.659C46.4819 442.6 54.5407 450.659 64.4819 450.659Z" fill="#F2F2F2"/>
<path opacity="0.3" d="M71.211 433.705C70.9753 433.123 70.5418 432.642 69.9869 432.348C69.6415 432.146 69.2689 431.994 68.8804 431.897C69.1422 431.771 69.3819 431.603 69.5904 431.401C69.9007 431.112 70.1342 430.751 70.27 430.35C70.3966 429.939 70.4482 429.508 70.4224 429.078C70.4202 428.365 70.2213 427.666 69.8474 427.058C69.4303 426.503 68.8615 426.08 68.2095 425.84C67.5765 425.595 66.9062 425.459 66.2274 425.439V422.557L64.485 423.685V425.444H63.091V423.595L61.305 422.557V425.444H57.5107L58.7305 427.608C58.989 427.59 59.2484 427.626 59.4928 427.712C59.6155 427.767 59.7155 427.862 59.776 427.982C59.8503 428.239 59.8783 428.506 59.8587 428.772V436.583C59.8777 436.847 59.8497 437.113 59.776 437.367C59.7193 437.484 59.6888 437.588 59.5538 437.651C59.4188 437.714 59.4144 437.71 59.0398 437.71H59.0354L57.5108 439.875H61.3007V442.761H63.0867V439.875H64.4807V442.761H66.2231V439.857C67.1049 439.841 67.9785 439.684 68.8107 439.392C69.5831 439.116 70.2593 438.623 70.7579 437.972C71.1926 437.279 71.4305 436.48 71.4462 435.663C71.4921 435.001 71.4123 434.337 71.211 433.705ZM63.0867 427.879H63.0871V427.819H64.3051C64.9904 427.819 67.2739 427.582 67.3118 429.513C67.3501 431.444 64.3051 431.365 64.3051 431.365H63.0871V431.216H63.0867L63.0867 427.879ZM63.0867 433.381H64.4807C64.7638 433.381 65.7379 433.425 66.0925 433.442C66.2372 433.447 66.3804 433.474 66.5176 433.52C66.5677 433.538 66.6152 433.558 66.6666 433.58C66.8823 433.652 67.0851 433.759 67.2673 433.895C67.3874 433.977 67.4924 434.079 67.5779 434.197C67.71 434.388 67.8063 434.602 67.8624 434.827C67.9039 434.985 67.9254 435.148 67.9264 435.311C67.9408 435.622 67.8653 435.93 67.709 436.199C67.4853 436.557 67.1572 436.837 66.769 437.002C66.0431 437.299 65.265 437.448 64.4807 437.439H63.0867L63.0867 433.381Z" fill="#F68927"/>
</g>
<defs>
<clipPath id="clip0">
<rect width="933.321" height="629.287" fill="white"/>
</clipPath>
</defs>
</svg>
