<svg width="114" height="68" viewBox="0 0 114 68" fill="none" xmlns="http://www.w3.org/2000/svg">
<path d="M20.2921 0.279999C20.8895 0.279999 21.3695 0.471999 21.7321 0.855999C22.0948 1.21867 22.2761 1.70933 22.2761 2.328V21.272C22.2761 21.8693 22.1055 22.3387 21.7641 22.68C21.4228 23.0213 20.9748 23.192 20.4201 23.192C19.8655 23.192 19.4281 23.0213 19.1081 22.68C18.7881 22.3387 18.6281 21.8693 18.6281 21.272V8.088L13.1881 18.392C12.9321 18.8613 12.6548 19.2133 12.3561 19.448C12.0575 19.6613 11.7055 19.768 11.3001 19.768C10.8948 19.768 10.5428 19.6613 10.2441 19.448C9.94546 19.2347 9.66813 18.8827 9.41213 18.392L3.94013 8.248V21.272C3.94013 21.848 3.76946 22.3173 3.42813 22.68C3.10813 23.0213 2.67079 23.192 2.11613 23.192C1.56146 23.192 1.12413 23.0213 0.804125 22.68C0.484125 22.3387 0.324125 21.8693 0.324125 21.272V2.328C0.324125 1.70933 0.494792 1.21867 0.836125 0.855999C1.19879 0.471999 1.67879 0.279999 2.27613 0.279999C3.10813 0.279999 3.75879 0.738665 4.22813 1.656L11.3321 15.192L18.4041 1.656C18.8735 0.738665 19.5028 0.279999 20.2921 0.279999ZM33.5984 6.968C35.7744 6.968 37.385 7.512 38.4304 8.6C39.497 9.66667 40.0304 11.2987 40.0304 13.496V21.304C40.0304 21.88 39.8597 22.3387 39.5184 22.68C39.177 23 38.7077 23.16 38.1104 23.16C37.5557 23.16 37.097 22.9893 36.7344 22.648C36.393 22.3067 36.2224 21.8587 36.2224 21.304V20.6C35.8597 21.432 35.2837 22.0827 34.4944 22.552C33.7264 23.0213 32.8304 23.256 31.8064 23.256C30.761 23.256 29.8117 23.0427 28.9584 22.616C28.105 22.1893 27.433 21.6027 26.9424 20.856C26.4517 20.1093 26.2064 19.2773 26.2064 18.36C26.2064 17.208 26.4944 16.3013 27.0704 15.64C27.6677 14.9787 28.6277 14.4987 29.9504 14.2C31.273 13.9013 33.097 13.752 35.4224 13.752H36.2224V13.016C36.2224 11.9707 35.9984 11.2133 35.5504 10.744C35.1024 10.2533 34.377 10.008 33.3744 10.008C32.7557 10.008 32.1264 10.104 31.4864 10.296C30.8464 10.4667 30.089 10.7227 29.2144 11.064C28.6597 11.3413 28.2544 11.48 27.9984 11.48C27.6144 11.48 27.2944 11.3413 27.0384 11.064C26.8037 10.7867 26.6864 10.424 26.6864 9.976C26.6864 9.61333 26.7717 9.304 26.9424 9.048C27.1344 8.77067 27.4437 8.51467 27.8704 8.28C28.617 7.87467 29.5024 7.55467 30.5264 7.32C31.5717 7.08533 32.5957 6.968 33.5984 6.968ZM32.6064 20.376C33.673 20.376 34.537 20.024 35.1984 19.32C35.881 18.5947 36.2224 17.6667 36.2224 16.536V15.864H35.6464C34.217 15.864 33.1077 15.928 32.3184 16.056C31.529 16.184 30.9637 16.408 30.6224 16.728C30.281 17.048 30.1104 17.4853 30.1104 18.04C30.1104 18.7227 30.345 19.288 30.8144 19.736C31.305 20.1627 31.9024 20.376 32.6064 20.376ZM57.3436 7.032C57.941 7.032 58.421 7.20267 58.7836 7.544C59.1463 7.88533 59.3276 8.344 59.3276 8.92V21.56C59.3276 24.0133 58.645 25.8693 57.2796 27.128C55.9143 28.3867 53.8983 29.016 51.2316 29.016C48.9063 29.016 46.965 28.5787 45.4076 27.704C44.6183 27.2347 44.2236 26.6693 44.2236 26.008C44.2236 25.5387 44.3303 25.1653 44.5436 24.888C44.7783 24.6107 45.077 24.472 45.4396 24.472C45.6316 24.472 45.8663 24.5147 46.1436 24.6C46.421 24.7067 46.709 24.824 47.0076 24.952C47.7756 25.272 48.4583 25.5173 49.0556 25.688C49.6743 25.8587 50.3783 25.944 51.1676 25.944C53.9623 25.944 55.3596 24.5787 55.3596 21.848V19.8C54.8903 20.6747 54.2076 21.3573 53.3116 21.848C52.4156 22.3173 51.3916 22.552 50.2396 22.552C48.8743 22.552 47.6583 22.232 46.5916 21.592C45.5463 20.9307 44.725 20.0133 44.1276 18.84C43.5303 17.6667 43.2316 16.312 43.2316 14.776C43.2316 13.24 43.5196 11.8853 44.0956 10.712C44.693 9.51733 45.525 8.6 46.5916 7.96C47.6583 7.29867 48.8743 6.968 50.2396 6.968C51.3916 6.968 52.4156 7.21333 53.3116 7.704C54.2076 8.17333 54.8903 8.84533 55.3596 9.72V8.888C55.3596 8.33333 55.541 7.88533 55.9036 7.544C56.2663 7.20267 56.7463 7.032 57.3436 7.032ZM51.2956 19.448C52.5756 19.448 53.5676 19.032 54.2716 18.2C54.997 17.368 55.3596 16.2267 55.3596 14.776C55.3596 13.304 54.997 12.152 54.2716 11.32C53.5676 10.488 52.5756 10.072 51.2956 10.072C50.037 10.072 49.045 10.488 48.3196 11.32C47.5943 12.152 47.2316 13.304 47.2316 14.776C47.2316 16.2267 47.5943 17.368 48.3196 18.2C49.045 19.032 50.037 19.448 51.2956 19.448ZM72.5586 6.968C74.436 6.968 75.8333 7.50133 76.7506 8.568C77.668 9.63467 78.1266 11.2453 78.1266 13.4V21.272C78.1266 21.8693 77.9453 22.3387 77.5826 22.68C77.2413 23.0213 76.7613 23.192 76.1426 23.192C75.524 23.192 75.0333 23.0213 74.6706 22.68C74.308 22.3387 74.1266 21.8693 74.1266 21.272V13.624C74.1266 12.408 73.892 11.5227 73.4226 10.968C72.9746 10.4133 72.26 10.136 71.2786 10.136C70.1266 10.136 69.1986 10.4987 68.4946 11.224C67.812 11.9493 67.4706 12.92 67.4706 14.136V21.272C67.4706 21.8693 67.2893 22.3387 66.9266 22.68C66.564 23.0213 66.0733 23.192 65.4546 23.192C64.836 23.192 64.3453 23.0213 63.9826 22.68C63.6413 22.3387 63.4706 21.8693 63.4706 21.272V8.888C63.4706 8.33333 63.652 7.88533 64.0146 7.544C64.3773 7.20267 64.868 7.032 65.4866 7.032C66.0413 7.032 66.4893 7.20267 66.8306 7.544C67.1933 7.864 67.3746 8.29067 67.3746 8.824V9.688C67.908 8.81333 68.6226 8.14133 69.5186 7.672C70.4146 7.20267 71.428 6.968 72.5586 6.968ZM94.5414 7.032C95.16 7.032 95.6507 7.20267 96.0134 7.544C96.376 7.88533 96.5574 8.344 96.5574 8.92V21.336C96.5574 21.8907 96.3654 22.3387 95.9814 22.68C95.6187 23.0213 95.1387 23.192 94.5414 23.192C93.9654 23.192 93.5067 23.032 93.1654 22.712C92.824 22.392 92.6534 21.9547 92.6534 21.4V20.6C92.1627 21.4533 91.5014 22.1147 90.6694 22.584C89.8374 23.032 88.8987 23.256 87.8534 23.256C84.0134 23.256 82.0934 21.1013 82.0934 16.792V8.92C82.0934 8.344 82.2747 7.88533 82.6374 7.544C83 7.20267 83.48 7.032 84.0774 7.032C84.696 7.032 85.1867 7.20267 85.5494 7.544C85.912 7.88533 86.0934 8.344 86.0934 8.92V16.824C86.0934 17.9333 86.3174 18.7547 86.7654 19.288C87.2134 19.8213 87.9174 20.088 88.8774 20.088C89.9867 20.088 90.872 19.7253 91.5334 19C92.216 18.2533 92.5574 17.272 92.5574 16.056V8.92C92.5574 8.344 92.7387 7.88533 93.1014 7.544C93.464 7.20267 93.944 7.032 94.5414 7.032ZM106.385 23.256C104.059 23.256 102.182 22.7973 100.753 21.88C100.07 21.4747 99.7286 20.8987 99.7286 20.152C99.7286 19.7253 99.846 19.384 100.081 19.128C100.315 18.8507 100.603 18.712 100.945 18.712C101.307 18.712 101.809 18.8827 102.449 19.224C103.131 19.544 103.75 19.7893 104.305 19.96C104.881 20.1307 105.606 20.216 106.481 20.216C107.377 20.216 108.07 20.0667 108.561 19.768C109.073 19.4693 109.329 19.0533 109.329 18.52C109.329 18.1573 109.222 17.8693 109.009 17.656C108.817 17.4427 108.454 17.2507 107.921 17.08C107.409 16.888 106.619 16.6747 105.553 16.44C103.654 16.056 102.289 15.512 101.457 14.808C100.646 14.104 100.241 13.1333 100.241 11.896C100.241 10.9573 100.518 10.1147 101.073 9.368C101.627 8.6 102.385 8.01333 103.345 7.608C104.326 7.18133 105.435 6.968 106.673 6.968C107.569 6.968 108.433 7.08533 109.265 7.32C110.097 7.53333 110.843 7.85333 111.505 8.28C112.187 8.70667 112.529 9.272 112.529 9.976C112.529 10.4027 112.411 10.7653 112.177 11.064C111.942 11.3413 111.654 11.48 111.313 11.48C111.078 11.48 110.843 11.4373 110.609 11.352C110.395 11.2453 110.118 11.096 109.777 10.904C109.158 10.584 108.625 10.3493 108.177 10.2C107.729 10.0293 107.174 9.944 106.513 9.944C105.723 9.944 105.094 10.104 104.625 10.424C104.177 10.744 103.953 11.1813 103.953 11.736C103.953 12.2693 104.187 12.6747 104.657 12.952C105.126 13.2293 106.033 13.5067 107.377 13.784C108.806 14.0827 109.926 14.424 110.737 14.808C111.547 15.192 112.123 15.672 112.465 16.248C112.827 16.824 113.009 17.56 113.009 18.456C113.009 19.9067 112.401 21.0693 111.185 21.944C109.99 22.8187 108.39 23.256 106.385 23.256ZM16.23 67.192C15.6113 67.192 15.11 67 14.726 66.616C14.3633 66.232 14.182 65.7307 14.182 65.112V46.328C14.182 45.7093 14.3633 45.2187 14.726 44.856C15.11 44.472 15.6113 44.28 16.23 44.28C16.87 44.28 17.3713 44.472 17.734 44.856C18.118 45.2187 18.31 45.7093 18.31 46.328V65.112C18.31 65.7307 18.118 66.232 17.734 66.616C17.3713 67 16.87 67.192 16.23 67.192ZM31.918 50.968C33.7953 50.968 35.1927 51.5013 36.11 52.568C37.0273 53.6347 37.486 55.2453 37.486 57.4V65.272C37.486 65.8693 37.3047 66.3387 36.942 66.68C36.6007 67.0213 36.1207 67.192 35.502 67.192C34.8833 67.192 34.3927 67.0213 34.03 66.68C33.6673 66.3387 33.486 65.8693 33.486 65.272V57.624C33.486 56.408 33.2513 55.5227 32.782 54.968C32.334 54.4133 31.6193 54.136 30.638 54.136C29.486 54.136 28.558 54.4987 27.854 55.224C27.1713 55.9493 26.83 56.92 26.83 58.136V65.272C26.83 65.8693 26.6487 66.3387 26.286 66.68C25.9233 67.0213 25.4327 67.192 24.814 67.192C24.1953 67.192 23.7047 67.0213 23.342 66.68C23.0007 66.3387 22.83 65.8693 22.83 65.272V52.888C22.83 52.3333 23.0113 51.8853 23.374 51.544C23.7367 51.2027 24.2273 51.032 24.846 51.032C25.4007 51.032 25.8487 51.2027 26.19 51.544C26.5527 51.864 26.734 52.2907 26.734 52.824V53.688C27.2673 52.8133 27.982 52.1413 28.878 51.672C29.774 51.2027 30.7873 50.968 31.918 50.968ZM52.4608 52.184C52.6314 51.8 52.8554 51.512 53.1328 51.32C53.4314 51.128 53.7514 51.032 54.0928 51.032C54.5834 51.032 55.0208 51.2027 55.4048 51.544C55.8101 51.864 56.0128 52.2693 56.0128 52.76C56.0128 53.016 55.9488 53.272 55.8208 53.528L49.9008 65.912C49.7088 66.3173 49.4314 66.6267 49.0688 66.84C48.7274 67.0533 48.3434 67.16 47.9167 67.16C47.5114 67.16 47.1168 67.0533 46.7328 66.84C46.3701 66.6267 46.0928 66.3173 45.9008 65.912L39.9488 53.528C39.8421 53.3147 39.7888 53.0693 39.7888 52.792C39.7888 52.3013 39.9914 51.8853 40.3968 51.544C40.8234 51.2027 41.3034 51.032 41.8368 51.032C42.6048 51.032 43.1701 51.4053 43.5328 52.152L48.0128 62.04L52.4608 52.184ZM70.5265 62.712C70.8892 62.712 71.1772 62.8507 71.3905 63.128C71.6252 63.4053 71.7425 63.7787 71.7425 64.248C71.7425 64.9093 71.3478 65.464 70.5585 65.912C69.8332 66.3173 69.0118 66.648 68.0945 66.904C67.1772 67.1387 66.3025 67.256 65.4705 67.256C62.9532 67.256 60.9585 66.5307 59.4865 65.08C58.0145 63.6293 57.2785 61.6453 57.2785 59.128C57.2785 57.528 57.5985 56.1093 58.2385 54.872C58.8785 53.6347 59.7745 52.6747 60.9265 51.992C62.0998 51.3093 63.4225 50.968 64.8945 50.968C66.3025 50.968 67.5292 51.2773 68.5745 51.896C69.6198 52.5147 70.4305 53.3893 71.0065 54.52C71.5825 55.6507 71.8705 56.984 71.8705 58.52C71.8705 59.4373 71.4652 59.896 70.6545 59.896H61.2145C61.3425 61.368 61.7585 62.456 62.4625 63.16C63.1665 63.8427 64.1905 64.184 65.5345 64.184C66.2172 64.184 66.8145 64.0987 67.3265 63.928C67.8598 63.7573 68.4572 63.5227 69.1185 63.224C69.7585 62.8827 70.2278 62.712 70.5265 62.712ZM64.9905 53.784C63.9025 53.784 63.0278 54.1253 62.3665 54.808C61.7265 55.4907 61.3425 56.472 61.2145 57.752H68.4465C68.4038 56.4507 68.0838 55.4693 67.4865 54.808C66.8892 54.1253 66.0572 53.784 64.9905 53.784ZM80.8065 67.256C78.4812 67.256 76.6038 66.7973 75.1745 65.88C74.4918 65.4747 74.1505 64.8987 74.1505 64.152C74.1505 63.7253 74.2678 63.384 74.5025 63.128C74.7372 62.8507 75.0252 62.712 75.3665 62.712C75.7292 62.712 76.2305 62.8827 76.8705 63.224C77.5532 63.544 78.1718 63.7893 78.7265 63.96C79.3025 64.1307 80.0278 64.216 80.9025 64.216C81.7985 64.216 82.4918 64.0667 82.9825 63.768C83.4945 63.4693 83.7505 63.0533 83.7505 62.52C83.7505 62.1573 83.6438 61.8693 83.4305 61.656C83.2385 61.4427 82.8758 61.2507 82.3425 61.08C81.8305 60.888 81.0412 60.6747 79.9745 60.44C78.0758 60.056 76.7105 59.512 75.8785 58.808C75.0678 58.104 74.6625 57.1333 74.6625 55.896C74.6625 54.9573 74.9398 54.1147 75.4945 53.368C76.0492 52.6 76.8065 52.0133 77.7665 51.608C78.7478 51.1813 79.8572 50.968 81.0945 50.968C81.9905 50.968 82.8545 51.0853 83.6865 51.32C84.5185 51.5333 85.2652 51.8533 85.9265 52.28C86.6092 52.7067 86.9505 53.272 86.9505 53.976C86.9505 54.4027 86.8332 54.7653 86.5985 55.064C86.3638 55.3413 86.0758 55.48 85.7345 55.48C85.4998 55.48 85.2652 55.4373 85.0305 55.352C84.8172 55.2453 84.5398 55.096 84.1985 54.904C83.5798 54.584 83.0465 54.3493 82.5985 54.2C82.1505 54.0293 81.5958 53.944 80.9345 53.944C80.1452 53.944 79.5158 54.104 79.0465 54.424C78.5985 54.744 78.3745 55.1813 78.3745 55.736C78.3745 56.2693 78.6092 56.6747 79.0785 56.952C79.5478 57.2293 80.4545 57.5067 81.7985 57.784C83.2278 58.0827 84.3478 58.424 85.1585 58.808C85.9692 59.192 86.5452 59.672 86.8865 60.248C87.2492 60.824 87.4305 61.56 87.4305 62.456C87.4305 63.9067 86.8225 65.0693 85.6065 65.944C84.4118 66.8187 82.8118 67.256 80.8065 67.256ZM98.6455 64.216C99.7122 64.28 100.246 64.76 100.246 65.656C100.246 66.168 100.032 66.5627 99.6055 66.84C99.2002 67.096 98.6135 67.2027 97.8455 67.16L96.9815 67.096C93.3975 66.84 91.6055 64.92 91.6055 61.336V54.36H90.0055C89.4295 54.36 88.9815 54.232 88.6615 53.976C88.3628 53.72 88.2135 53.3467 88.2135 52.856C88.2135 52.3653 88.3628 51.992 88.6615 51.736C88.9815 51.48 89.4295 51.352 90.0055 51.352H91.6055V48.408C91.6055 47.832 91.7868 47.3733 92.1495 47.032C92.5122 46.6907 93.0028 46.52 93.6215 46.52C94.2188 46.52 94.6988 46.6907 95.0615 47.032C95.4242 47.3733 95.6055 47.832 95.6055 48.408V51.352H98.3255C98.9015 51.352 99.3388 51.48 99.6375 51.736C99.9575 51.992 100.118 52.3653 100.118 52.856C100.118 53.3467 99.9575 53.72 99.6375 53.976C99.3388 54.232 98.9015 54.36 98.3255 54.36H95.6055V61.624C95.6055 63.2027 96.3308 64.0453 97.7815 64.152L98.6455 64.216Z" fill="#858080"/>
</svg>
