<svg width="161" height="30" viewBox="0 0 161 30" fill="none" xmlns="http://www.w3.org/2000/svg">
<path d="M20.464 0.279999C21.0613 0.279999 21.5413 0.471999 21.904 0.855999C22.2667 1.21867 22.448 1.70933 22.448 2.328V21.272C22.448 21.8693 22.2773 22.3387 21.936 22.68C21.5947 23.0213 21.1467 23.192 20.592 23.192C20.0373 23.192 19.6 23.0213 19.28 22.68C18.96 22.3387 18.8 21.8693 18.8 21.272V8.088L13.36 18.392C13.104 18.8613 12.8267 19.2133 12.528 19.448C12.2293 19.6613 11.8773 19.768 11.472 19.768C11.0667 19.768 10.7147 19.6613 10.416 19.448C10.1173 19.2347 9.84 18.8827 9.584 18.392L4.112 8.248V21.272C4.112 21.848 3.94133 22.3173 3.6 22.68C3.28 23.0213 2.84267 23.192 2.288 23.192C1.73333 23.192 1.296 23.0213 0.976 22.68C0.656 22.3387 0.496 21.8693 0.496 21.272V2.328C0.496 1.70933 0.666667 1.21867 1.008 0.855999C1.37067 0.471999 1.85067 0.279999 2.448 0.279999C3.28 0.279999 3.93067 0.738665 4.4 1.656L11.504 15.192L18.576 1.656C19.0453 0.738665 19.6747 0.279999 20.464 0.279999ZM33.7703 6.968C35.9463 6.968 37.5569 7.512 38.6023 8.6C39.6689 9.66667 40.2023 11.2987 40.2023 13.496V21.304C40.2023 21.88 40.0316 22.3387 39.6903 22.68C39.3489 23 38.8796 23.16 38.2823 23.16C37.7276 23.16 37.2689 22.9893 36.9063 22.648C36.5649 22.3067 36.3943 21.8587 36.3943 21.304V20.6C36.0316 21.432 35.4556 22.0827 34.6663 22.552C33.8983 23.0213 33.0023 23.256 31.9783 23.256C30.9329 23.256 29.9836 23.0427 29.1302 22.616C28.2769 22.1893 27.6049 21.6027 27.1143 20.856C26.6236 20.1093 26.3783 19.2773 26.3783 18.36C26.3783 17.208 26.6663 16.3013 27.2423 15.64C27.8396 14.9787 28.7996 14.4987 30.1223 14.2C31.4449 13.9013 33.2689 13.752 35.5943 13.752H36.3943V13.016C36.3943 11.9707 36.1703 11.2133 35.7223 10.744C35.2743 10.2533 34.5489 10.008 33.5463 10.008C32.9276 10.008 32.2983 10.104 31.6583 10.296C31.0183 10.4667 30.2609 10.7227 29.3863 11.064C28.8316 11.3413 28.4263 11.48 28.1703 11.48C27.7863 11.48 27.4663 11.3413 27.2103 11.064C26.9756 10.7867 26.8583 10.424 26.8583 9.976C26.8583 9.61333 26.9436 9.304 27.1143 9.048C27.3063 8.77067 27.6156 8.51467 28.0423 8.28C28.7889 7.87467 29.6743 7.55467 30.6983 7.32C31.7436 7.08533 32.7676 6.968 33.7703 6.968ZM32.7783 20.376C33.8449 20.376 34.7089 20.024 35.3703 19.32C36.0529 18.5947 36.3943 17.6667 36.3943 16.536V15.864H35.8183C34.3889 15.864 33.2796 15.928 32.4903 16.056C31.7009 16.184 31.1356 16.408 30.7943 16.728C30.4529 17.048 30.2823 17.4853 30.2823 18.04C30.2823 18.7227 30.5169 19.288 30.9863 19.736C31.4769 20.1627 32.0743 20.376 32.7783 20.376ZM53.3555 6.968C55.2328 6.968 56.6302 7.50133 57.5475 8.568C58.4648 9.63467 58.9235 11.2453 58.9235 13.4V21.272C58.9235 21.8693 58.7422 22.3387 58.3795 22.68C58.0382 23.0213 57.5582 23.192 56.9395 23.192C56.3208 23.192 55.8302 23.0213 55.4675 22.68C55.1048 22.3387 54.9235 21.8693 54.9235 21.272V13.624C54.9235 12.408 54.6888 11.5227 54.2195 10.968C53.7715 10.4133 53.0568 10.136 52.0755 10.136C50.9235 10.136 49.9955 10.4987 49.2915 11.224C48.6088 11.9493 48.2675 12.92 48.2675 14.136V21.272C48.2675 21.8693 48.0862 22.3387 47.7235 22.68C47.3608 23.0213 46.8702 23.192 46.2515 23.192C45.6328 23.192 45.1422 23.0213 44.7795 22.68C44.4382 22.3387 44.2675 21.8693 44.2675 21.272V8.888C44.2675 8.33333 44.4488 7.88533 44.8115 7.544C45.1742 7.20267 45.6648 7.032 46.2835 7.032C46.8382 7.032 47.2862 7.20267 47.6275 7.544C47.9902 7.864 48.1715 8.29067 48.1715 8.824V9.688C48.7048 8.81333 49.4195 8.14133 50.3155 7.672C51.2115 7.20267 52.2248 6.968 53.3555 6.968ZM76.2343 7.032C76.8316 7.032 77.3116 7.20267 77.6743 7.544C78.0369 7.88533 78.2183 8.344 78.2183 8.92V21.56C78.2183 24.0133 77.5356 25.8693 76.1703 27.128C74.8049 28.3867 72.7889 29.016 70.1223 29.016C67.7969 29.016 65.8556 28.5787 64.2983 27.704C63.5089 27.2347 63.1143 26.6693 63.1143 26.008C63.1143 25.5387 63.2209 25.1653 63.4343 24.888C63.6689 24.6107 63.9676 24.472 64.3303 24.472C64.5223 24.472 64.7569 24.5147 65.0343 24.6C65.3116 24.7067 65.5996 24.824 65.8983 24.952C66.6663 25.272 67.3489 25.5173 67.9463 25.688C68.5649 25.8587 69.2689 25.944 70.0583 25.944C72.8529 25.944 74.2503 24.5787 74.2503 21.848V19.8C73.7809 20.6747 73.0983 21.3573 72.2023 21.848C71.3063 22.3173 70.2823 22.552 69.1302 22.552C67.7649 22.552 66.5489 22.232 65.4823 21.592C64.4369 20.9307 63.6156 20.0133 63.0182 18.84C62.4209 17.6667 62.1223 16.312 62.1223 14.776C62.1223 13.24 62.4103 11.8853 62.9863 10.712C63.5836 9.51733 64.4156 8.6 65.4823 7.96C66.5489 7.29867 67.7649 6.968 69.1302 6.968C70.2823 6.968 71.3063 7.21333 72.2023 7.704C73.0983 8.17333 73.7809 8.84533 74.2503 9.72V8.888C74.2503 8.33333 74.4316 7.88533 74.7943 7.544C75.1569 7.20267 75.6369 7.032 76.2343 7.032ZM70.1863 19.448C71.4663 19.448 72.4583 19.032 73.1623 18.2C73.8876 17.368 74.2503 16.2267 74.2503 14.776C74.2503 13.304 73.8876 12.152 73.1623 11.32C72.4583 10.488 71.4663 10.072 70.1863 10.072C68.9276 10.072 67.9356 10.488 67.2103 11.32C66.4849 12.152 66.1223 13.304 66.1223 14.776C66.1223 16.2267 66.4849 17.368 67.2103 18.2C67.9356 19.032 68.9276 19.448 70.1863 19.448ZM89.4973 23.256C87.8973 23.256 86.4893 22.9253 85.2733 22.264C84.0786 21.6027 83.1506 20.6533 82.4893 19.416C81.8279 18.1787 81.4973 16.7387 81.4973 15.096C81.4973 13.4533 81.8279 12.024 82.4893 10.808C83.1506 9.57067 84.0786 8.62133 85.2733 7.96C86.4893 7.29867 87.8973 6.968 89.4973 6.968C91.0973 6.968 92.4946 7.29867 93.6893 7.96C94.9053 8.62133 95.8333 9.57067 96.4733 10.808C97.1346 12.024 97.4653 13.4533 97.4653 15.096C97.4653 16.7387 97.1346 18.1787 96.4733 19.416C95.8333 20.6533 94.9053 21.6027 93.6893 22.264C92.4946 22.9253 91.0973 23.256 89.4973 23.256ZM89.4653 20.152C90.7666 20.152 91.7586 19.7253 92.4413 18.872C93.1239 18.0187 93.4653 16.76 93.4653 15.096C93.4653 13.4533 93.1239 12.2053 92.4413 11.352C91.7586 10.4773 90.7773 10.04 89.4973 10.04C88.2173 10.04 87.2253 10.4773 86.5213 11.352C85.8386 12.2053 85.4973 13.4533 85.4973 15.096C85.4973 16.76 85.8386 18.0187 86.5213 18.872C87.2039 19.7253 88.1853 20.152 89.4653 20.152ZM121.152 0.279999C121.749 0.279999 122.229 0.471999 122.592 0.855999C122.954 1.21867 123.136 1.70933 123.136 2.328V21.272C123.136 21.8693 122.965 22.3387 122.624 22.68C122.282 23.0213 121.834 23.192 121.28 23.192C120.725 23.192 120.288 23.0213 119.968 22.68C119.648 22.3387 119.488 21.8693 119.488 21.272V8.088L114.048 18.392C113.792 18.8613 113.514 19.2133 113.216 19.448C112.917 19.6613 112.565 19.768 112.16 19.768C111.754 19.768 111.402 19.6613 111.104 19.448C110.805 19.2347 110.528 18.8827 110.272 18.392L104.8 8.248V21.272C104.8 21.848 104.629 22.3173 104.288 22.68C103.968 23.0213 103.53 23.192 102.976 23.192C102.421 23.192 101.984 23.0213 101.664 22.68C101.344 22.3387 101.184 21.8693 101.184 21.272V2.328C101.184 1.70933 101.354 1.21867 101.696 0.855999C102.058 0.471999 102.538 0.279999 103.136 0.279999C103.968 0.279999 104.618 0.738665 105.088 1.656L112.192 15.192L119.264 1.656C119.733 0.738665 120.362 0.279999 121.152 0.279999ZM134.458 6.968C136.634 6.968 138.244 7.512 139.29 8.6C140.356 9.66667 140.89 11.2987 140.89 13.496V21.304C140.89 21.88 140.719 22.3387 140.378 22.68C140.036 23 139.567 23.16 138.97 23.16C138.415 23.16 137.956 22.9893 137.594 22.648C137.252 22.3067 137.082 21.8587 137.082 21.304V20.6C136.719 21.432 136.143 22.0827 135.354 22.552C134.586 23.0213 133.69 23.256 132.666 23.256C131.62 23.256 130.671 23.0427 129.818 22.616C128.964 22.1893 128.292 21.6027 127.802 20.856C127.311 20.1093 127.066 19.2773 127.066 18.36C127.066 17.208 127.354 16.3013 127.93 15.64C128.527 14.9787 129.487 14.4987 130.81 14.2C132.132 13.9013 133.956 13.752 136.282 13.752H137.082V13.016C137.082 11.9707 136.858 11.2133 136.41 10.744C135.962 10.2533 135.236 10.008 134.234 10.008C133.615 10.008 132.986 10.104 132.346 10.296C131.706 10.4667 130.948 10.7227 130.074 11.064C129.519 11.3413 129.114 11.48 128.858 11.48C128.474 11.48 128.154 11.3413 127.898 11.064C127.663 10.7867 127.546 10.424 127.546 9.976C127.546 9.61333 127.631 9.304 127.802 9.048C127.994 8.77067 128.303 8.51467 128.73 8.28C129.476 7.87467 130.362 7.55467 131.386 7.32C132.431 7.08533 133.455 6.968 134.458 6.968ZM133.466 20.376C134.532 20.376 135.396 20.024 136.058 19.32C136.74 18.5947 137.082 17.6667 137.082 16.536V15.864H136.506C135.076 15.864 133.967 15.928 133.178 16.056C132.388 16.184 131.823 16.408 131.482 16.728C131.14 17.048 130.97 17.4853 130.97 18.04C130.97 18.7227 131.204 19.288 131.674 19.736C132.164 20.1627 132.762 20.376 133.466 20.376ZM153.947 6.968C155.291 6.968 156.486 7.30933 157.531 7.992C158.598 8.67467 159.419 9.64533 159.995 10.904C160.592 12.1413 160.891 13.5707 160.891 15.192C160.891 16.8133 160.592 18.232 159.995 19.448C159.419 20.664 158.608 21.6027 157.563 22.264C156.518 22.9253 155.312 23.256 153.947 23.256C152.838 23.256 151.846 23.0213 150.971 22.552C150.096 22.0827 149.424 21.432 148.955 20.6V27.128C148.955 27.6827 148.774 28.12 148.411 28.44C148.048 28.76 147.568 28.92 146.971 28.92C146.374 28.92 145.883 28.7493 145.499 28.408C145.136 28.0667 144.955 27.6187 144.955 27.064V8.92C144.955 8.344 145.126 7.88533 145.467 7.544C145.83 7.20267 146.31 7.032 146.907 7.032C147.504 7.032 147.984 7.20267 148.347 7.544C148.71 7.88533 148.891 8.344 148.891 8.92V9.72C149.36 8.84533 150.032 8.17333 150.907 7.704C151.803 7.21333 152.816 6.968 153.947 6.968ZM152.891 20.152C154.15 20.152 155.131 19.7253 155.835 18.872C156.539 17.9973 156.891 16.7707 156.891 15.192C156.891 13.5707 156.539 12.312 155.835 11.416C155.131 10.52 154.15 10.072 152.891 10.072C151.611 10.072 150.619 10.5093 149.915 11.384C149.232 12.2587 148.891 13.5067 148.891 15.128C148.891 16.728 149.232 17.9653 149.915 18.84C150.619 19.7147 151.611 20.152 152.891 20.152Z" fill="#858080"/>
</svg>
