<svg width="175" height="25" viewBox="0 0 175 25" fill="none" xmlns="http://www.w3.org/2000/svg">
<path d="M2.48 24.192C1.86133 24.192 1.36 24 0.976 23.616C0.613333 23.232 0.432 22.7307 0.432 22.112V3.328C0.432 2.70933 0.613333 2.21867 0.976 1.856C1.36 1.472 1.86133 1.28 2.48 1.28C3.12 1.28 3.62133 1.472 3.984 1.856C4.368 2.21867 4.56 2.70933 4.56 3.328V22.112C4.56 22.7307 4.368 23.232 3.984 23.616C3.62133 24 3.12 24.192 2.48 24.192ZM17.208 21.216C18.2747 21.28 18.808 21.76 18.808 22.656C18.808 23.168 18.5947 23.5627 18.168 23.84C17.7627 24.096 17.176 24.2027 16.408 24.16L15.544 24.096C11.96 23.84 10.168 21.92 10.168 18.336V11.36H8.568C7.992 11.36 7.544 11.232 7.224 10.976C6.92533 10.72 6.776 10.3467 6.776 9.856C6.776 9.36533 6.92533 8.992 7.224 8.736C7.544 8.48 7.992 8.352 8.568 8.352H10.168V5.408C10.168 4.832 10.3493 4.37333 10.712 4.032C11.0747 3.69067 11.5653 3.52 12.184 3.52C12.7813 3.52 13.2613 3.69067 13.624 4.032C13.9867 4.37333 14.168 4.832 14.168 5.408V8.352H16.888C17.464 8.352 17.9013 8.48 18.2 8.736C18.52 8.992 18.68 9.36533 18.68 9.856C18.68 10.3467 18.52 10.72 18.2 10.976C17.9013 11.232 17.464 11.36 16.888 11.36H14.168V18.624C14.168 20.2027 14.8933 21.0453 16.344 21.152L17.208 21.216ZM22.8765 24.192C22.3005 24.192 21.8205 24.032 21.4365 23.712C21.0738 23.3707 20.8925 22.8907 20.8925 22.272V9.92C20.8925 9.30133 21.0738 8.832 21.4365 8.512C21.8205 8.192 22.3005 8.032 22.8765 8.032C23.4525 8.032 23.9325 8.192 24.3165 8.512C24.7005 8.832 24.8925 9.30133 24.8925 9.92V22.272C24.8925 22.8907 24.7005 23.3707 24.3165 23.712C23.9325 24.032 23.4525 24.192 22.8765 24.192ZM22.8765 5.184C22.1512 5.184 21.5752 4.992 21.1485 4.608C20.7218 4.20267 20.5085 3.68 20.5085 3.04C20.5085 2.4 20.7218 1.888 21.1485 1.504C21.5752 1.12 22.1512 0.927999 22.8765 0.927999C23.5805 0.927999 24.1458 1.12 24.5725 1.504C25.0205 1.888 25.2445 2.4 25.2445 3.04C25.2445 3.68 25.0312 4.20267 24.6045 4.608C24.1778 4.992 23.6018 5.184 22.8765 5.184ZM48.137 24.288C45.961 24.288 44.0517 23.8187 42.409 22.88C40.7877 21.9413 39.5397 20.5973 38.665 18.848C37.7903 17.0987 37.353 15.0507 37.353 12.704C37.353 10.3573 37.7903 8.32 38.665 6.592C39.5397 4.84267 40.7877 3.49867 42.409 2.56C44.0517 1.62133 45.961 1.152 48.137 1.152C49.545 1.152 50.8677 1.36533 52.105 1.792C53.3423 2.19733 54.441 2.79467 55.401 3.584C55.6783 3.79733 55.8703 4.02133 55.977 4.256C56.0837 4.49067 56.137 4.77867 56.137 5.12C56.137 5.58933 56.009 5.984 55.753 6.304C55.497 6.624 55.1877 6.784 54.825 6.784C54.3983 6.784 53.961 6.63467 53.513 6.336C52.5957 5.65333 51.7423 5.184 50.953 4.928C50.1637 4.65067 49.289 4.512 48.329 4.512C46.1103 4.512 44.425 5.20533 43.273 6.592C42.1423 7.97867 41.577 10.016 41.577 12.704C41.577 15.4133 42.1423 17.4613 43.273 18.848C44.425 20.2347 46.1103 20.928 48.329 20.928C49.2463 20.928 50.089 20.7893 50.857 20.512C51.6463 20.2347 52.5317 19.7653 53.513 19.104C53.7263 18.976 53.9397 18.8693 54.153 18.784C54.3663 18.6987 54.5903 18.656 54.825 18.656C55.1877 18.656 55.497 18.816 55.753 19.136C56.009 19.456 56.137 19.8507 56.137 20.32C56.137 20.64 56.0837 20.928 55.977 21.184C55.8703 21.4187 55.6783 21.6427 55.401 21.856C54.441 22.6453 53.3423 23.2533 52.105 23.68C50.8677 24.0853 49.545 24.288 48.137 24.288ZM66.216 24.256C64.616 24.256 63.208 23.9253 61.992 23.264C60.7973 22.6027 59.8693 21.6533 59.208 20.416C58.5467 19.1787 58.216 17.7387 58.216 16.096C58.216 14.4533 58.5467 13.024 59.208 11.808C59.8693 10.5707 60.7973 9.62133 61.992 8.96C63.208 8.29867 64.616 7.968 66.216 7.968C67.816 7.968 69.2133 8.29867 70.408 8.96C71.624 9.62133 72.552 10.5707 73.192 11.808C73.8533 13.024 74.184 14.4533 74.184 16.096C74.184 17.7387 73.8533 19.1787 73.192 20.416C72.552 21.6533 71.624 22.6027 70.408 23.264C69.2133 23.9253 67.816 24.256 66.216 24.256ZM66.184 21.152C67.4853 21.152 68.4773 20.7253 69.16 19.872C69.8427 19.0187 70.184 17.76 70.184 16.096C70.184 14.4533 69.8427 13.2053 69.16 12.352C68.4773 11.4773 67.496 11.04 66.216 11.04C64.936 11.04 63.944 11.4773 63.24 12.352C62.5573 13.2053 62.216 14.4533 62.216 16.096C62.216 17.76 62.5573 19.0187 63.24 19.872C63.9227 20.7253 64.904 21.152 66.184 21.152ZM86.2223 8.032C86.7769 7.98933 87.2143 8.10667 87.5343 8.384C87.8543 8.66133 88.0143 9.07733 88.0143 9.632C88.0143 10.208 87.8756 10.6347 87.5983 10.912C87.3209 11.1893 86.8196 11.3707 86.0943 11.456L85.1343 11.552C83.8756 11.68 82.9476 12.1067 82.3503 12.832C81.7743 13.5573 81.4863 14.464 81.4863 15.552V22.272C81.4863 22.8907 81.2943 23.3707 80.9103 23.712C80.5263 24.032 80.0463 24.192 79.4703 24.192C78.8943 24.192 78.4143 24.032 78.0303 23.712C77.6676 23.3707 77.4863 22.8907 77.4863 22.272V9.888C77.4863 9.29067 77.6676 8.832 78.0303 8.512C78.4143 8.192 78.8836 8.032 79.4383 8.032C79.9929 8.032 80.4409 8.192 80.7823 8.512C81.1236 8.81067 81.2943 9.248 81.2943 9.824V11.104C81.6996 10.1653 82.2969 9.44 83.0863 8.928C83.8969 8.416 84.7929 8.128 85.7743 8.064L86.2223 8.032ZM98.4723 8.032C99.0269 7.98933 99.4643 8.10667 99.7843 8.384C100.104 8.66133 100.264 9.07733 100.264 9.632C100.264 10.208 100.126 10.6347 99.8483 10.912C99.5709 11.1893 99.0696 11.3707 98.3443 11.456L97.3843 11.552C96.1256 11.68 95.1976 12.1067 94.6003 12.832C94.0243 13.5573 93.7363 14.464 93.7363 15.552V22.272C93.7363 22.8907 93.5443 23.3707 93.1603 23.712C92.7763 24.032 92.2963 24.192 91.7203 24.192C91.1443 24.192 90.6643 24.032 90.2803 23.712C89.9176 23.3707 89.7363 22.8907 89.7363 22.272V9.888C89.7363 9.29067 89.9176 8.832 90.2803 8.512C90.6643 8.192 91.1336 8.032 91.6883 8.032C92.2429 8.032 92.6909 8.192 93.0323 8.512C93.3736 8.81067 93.5443 9.248 93.5443 9.824V11.104C93.9496 10.1653 94.5469 9.44 95.3363 8.928C96.1469 8.416 97.0429 8.128 98.0243 8.064L98.4723 8.032ZM114.058 19.712C114.42 19.712 114.708 19.8507 114.922 20.128C115.156 20.4053 115.274 20.7787 115.274 21.248C115.274 21.9093 114.879 22.464 114.09 22.912C113.364 23.3173 112.543 23.648 111.626 23.904C110.708 24.1387 109.834 24.256 109.002 24.256C106.484 24.256 104.49 23.5307 103.018 22.08C101.546 20.6293 100.81 18.6453 100.81 16.128C100.81 14.528 101.13 13.1093 101.77 11.872C102.41 10.6347 103.306 9.67467 104.458 8.992C105.631 8.30933 106.954 7.968 108.426 7.968C109.834 7.968 111.06 8.27733 112.106 8.896C113.151 9.51467 113.962 10.3893 114.538 11.52C115.114 12.6507 115.402 13.984 115.402 15.52C115.402 16.4373 114.996 16.896 114.186 16.896H104.746C104.874 18.368 105.29 19.456 105.994 20.16C106.698 20.8427 107.722 21.184 109.066 21.184C109.748 21.184 110.346 21.0987 110.858 20.928C111.391 20.7573 111.988 20.5227 112.65 20.224C113.29 19.8827 113.759 19.712 114.058 19.712ZM108.522 10.784C107.434 10.784 106.559 11.1253 105.898 11.808C105.258 12.4907 104.874 13.472 104.746 14.752H111.978C111.935 13.4507 111.615 12.4693 111.018 11.808C110.42 11.1253 109.588 10.784 108.522 10.784ZM126.583 21.216C127.65 21.28 128.183 21.76 128.183 22.656C128.183 23.168 127.97 23.5627 127.543 23.84C127.138 24.096 126.551 24.2027 125.783 24.16L124.919 24.096C121.335 23.84 119.543 21.92 119.543 18.336V11.36H117.943C117.367 11.36 116.919 11.232 116.599 10.976C116.3 10.72 116.151 10.3467 116.151 9.856C116.151 9.36533 116.3 8.992 116.599 8.736C116.919 8.48 117.367 8.352 117.943 8.352H119.543V5.408C119.543 4.832 119.724 4.37333 120.087 4.032C120.45 3.69067 120.94 3.52 121.559 3.52C122.156 3.52 122.636 3.69067 122.999 4.032C123.362 4.37333 123.543 4.832 123.543 5.408V8.352H126.263C126.839 8.352 127.276 8.48 127.575 8.736C127.895 8.992 128.055 9.36533 128.055 9.856C128.055 10.3467 127.895 10.72 127.575 10.976C127.276 11.232 126.839 11.36 126.263 11.36H123.543V18.624C123.543 20.2027 124.268 21.0453 125.719 21.152L126.583 21.216ZM137.404 24.256C135.804 24.256 134.396 23.9253 133.18 23.264C131.985 22.6027 131.057 21.6533 130.396 20.416C129.734 19.1787 129.404 17.7387 129.404 16.096C129.404 14.4533 129.734 13.024 130.396 11.808C131.057 10.5707 131.985 9.62133 133.18 8.96C134.396 8.29867 135.804 7.968 137.404 7.968C139.004 7.968 140.401 8.29867 141.596 8.96C142.812 9.62133 143.74 10.5707 144.38 11.808C145.041 13.024 145.372 14.4533 145.372 16.096C145.372 17.7387 145.041 19.1787 144.38 20.416C143.74 21.6533 142.812 22.6027 141.596 23.264C140.401 23.9253 139.004 24.256 137.404 24.256ZM137.372 21.152C138.673 21.152 139.665 20.7253 140.348 19.872C141.03 19.0187 141.372 17.76 141.372 16.096C141.372 14.4533 141.03 13.2053 140.348 12.352C139.665 11.4773 138.684 11.04 137.404 11.04C136.124 11.04 135.132 11.4773 134.428 12.352C133.745 13.2053 133.404 14.4533 133.404 16.096C133.404 17.76 133.745 19.0187 134.428 19.872C135.11 20.7253 136.092 21.152 137.372 21.152ZM157.41 8.032C157.964 7.98933 158.402 8.10667 158.722 8.384C159.042 8.66133 159.202 9.07733 159.202 9.632C159.202 10.208 159.063 10.6347 158.786 10.912C158.508 11.1893 158.007 11.3707 157.282 11.456L156.322 11.552C155.063 11.68 154.135 12.1067 153.538 12.832C152.962 13.5573 152.674 14.464 152.674 15.552V22.272C152.674 22.8907 152.482 23.3707 152.098 23.712C151.714 24.032 151.234 24.192 150.658 24.192C150.082 24.192 149.602 24.032 149.218 23.712C148.855 23.3707 148.674 22.8907 148.674 22.272V9.888C148.674 9.29067 148.855 8.832 149.218 8.512C149.602 8.192 150.071 8.032 150.626 8.032C151.18 8.032 151.628 8.192 151.97 8.512C152.311 8.81067 152.482 9.248 152.482 9.824V11.104C152.887 10.1653 153.484 9.44 154.274 8.928C155.084 8.416 155.98 8.128 156.962 8.064L157.41 8.032ZM167.645 7.968C169.821 7.968 171.432 8.512 172.477 9.6C173.544 10.6667 174.077 12.2987 174.077 14.496V22.304C174.077 22.88 173.907 23.3387 173.565 23.68C173.224 24 172.755 24.16 172.157 24.16C171.603 24.16 171.144 23.9893 170.781 23.648C170.44 23.3067 170.269 22.8587 170.269 22.304V21.6C169.907 22.432 169.331 23.0827 168.541 23.552C167.773 24.0213 166.877 24.256 165.853 24.256C164.808 24.256 163.859 24.0427 163.005 23.616C162.152 23.1893 161.48 22.6027 160.989 21.856C160.499 21.1093 160.253 20.2773 160.253 19.36C160.253 18.208 160.541 17.3013 161.117 16.64C161.715 15.9787 162.675 15.4987 163.997 15.2C165.32 14.9013 167.144 14.752 169.469 14.752H170.269V14.016C170.269 12.9707 170.045 12.2133 169.597 11.744C169.149 11.2533 168.424 11.008 167.421 11.008C166.803 11.008 166.173 11.104 165.533 11.296C164.893 11.4667 164.136 11.7227 163.261 12.064C162.707 12.3413 162.301 12.48 162.045 12.48C161.661 12.48 161.341 12.3413 161.085 12.064C160.851 11.7867 160.733 11.424 160.733 10.976C160.733 10.6133 160.819 10.304 160.989 10.048C161.181 9.77067 161.491 9.51467 161.917 9.28C162.664 8.87467 163.549 8.55467 164.573 8.32C165.619 8.08533 166.643 7.968 167.645 7.968ZM166.653 21.376C167.72 21.376 168.584 21.024 169.245 20.32C169.928 19.5947 170.269 18.6667 170.269 17.536V16.864H169.693C168.264 16.864 167.155 16.928 166.365 17.056C165.576 17.184 165.011 17.408 164.669 17.728C164.328 18.048 164.157 18.4853 164.157 19.04C164.157 19.7227 164.392 20.288 164.861 20.736C165.352 21.1627 165.949 21.376 166.653 21.376Z" fill="#858080"/>
</svg>
