<svg width="162" height="25" viewBox="0 0 162 25" fill="none" xmlns="http://www.w3.org/2000/svg">
<path d="M2.48 24.192C1.86133 24.192 1.36 24 0.976 23.616C0.613333 23.232 0.432 22.7307 0.432 22.112V3.392C0.432 2.77333 0.602667 2.29333 0.944 1.952C1.30667 1.61067 1.79733 1.44 2.416 1.44H13.648C14.9493 1.44 15.6 1.99467 15.6 3.104C15.6 4.192 14.9493 4.736 13.648 4.736H4.496V10.88H13.008C14.3093 10.88 14.96 11.4347 14.96 12.544C14.96 13.632 14.3093 14.176 13.008 14.176H4.496V22.112C4.496 22.7307 4.31467 23.232 3.952 23.616C3.58933 24 3.09867 24.192 2.48 24.192ZM21.4703 24.192C20.8943 24.192 20.4143 24.032 20.0303 23.712C19.6676 23.3707 19.4863 22.8907 19.4863 22.272V9.92C19.4863 9.30133 19.6676 8.832 20.0303 8.512C20.4143 8.192 20.8943 8.032 21.4703 8.032C22.0463 8.032 22.5263 8.192 22.9103 8.512C23.2943 8.832 23.4863 9.30133 23.4863 9.92V22.272C23.4863 22.8907 23.2943 23.3707 22.9103 23.712C22.5263 24.032 22.0463 24.192 21.4703 24.192ZM21.4703 5.184C20.7449 5.184 20.1689 4.992 19.7423 4.608C19.3156 4.20267 19.1023 3.68 19.1023 3.04C19.1023 2.4 19.3156 1.888 19.7423 1.504C20.1689 1.12 20.7449 0.927999 21.4703 0.927999C22.1743 0.927999 22.7396 1.12 23.1663 1.504C23.6143 1.888 23.8383 2.4 23.8383 3.04C23.8383 3.68 23.6249 4.20267 23.1983 4.608C22.7716 4.992 22.1956 5.184 21.4703 5.184ZM36.6993 7.968C38.5766 7.968 39.9739 8.50133 40.8913 9.568C41.8086 10.6347 42.2673 12.2453 42.2673 14.4V22.272C42.2673 22.8693 42.0859 23.3387 41.7233 23.68C41.3819 24.0213 40.9019 24.192 40.2833 24.192C39.6646 24.192 39.1739 24.0213 38.8113 23.68C38.4486 23.3387 38.2673 22.8693 38.2673 22.272V14.624C38.2673 13.408 38.0326 12.5227 37.5633 11.968C37.1153 11.4133 36.4006 11.136 35.4193 11.136C34.2673 11.136 33.3393 11.4987 32.6353 12.224C31.9526 12.9493 31.6113 13.92 31.6113 15.136V22.272C31.6113 22.8693 31.4299 23.3387 31.0673 23.68C30.7046 24.0213 30.2139 24.192 29.5953 24.192C28.9766 24.192 28.4859 24.0213 28.1233 23.68C27.7819 23.3387 27.6113 22.8693 27.6113 22.272V9.888C27.6113 9.33333 27.7926 8.88533 28.1553 8.544C28.5179 8.20267 29.0086 8.032 29.6273 8.032C30.1819 8.032 30.6299 8.20267 30.9713 8.544C31.3339 8.864 31.5153 9.29067 31.5153 9.824V10.688C32.0486 9.81333 32.7633 9.14133 33.6593 8.672C34.5553 8.20267 35.5686 7.968 36.6993 7.968ZM59.386 1.28C59.9833 1.28 60.474 1.45067 60.858 1.792C61.242 2.13333 61.434 2.58133 61.434 3.136V22.272C61.434 22.848 61.2527 23.3067 60.89 23.648C60.5273 23.9893 60.0473 24.16 59.45 24.16C58.8527 24.16 58.3727 23.9893 58.01 23.648C57.6473 23.3067 57.466 22.848 57.466 22.272V21.472C56.9967 22.3467 56.314 23.0293 55.418 23.52C54.5433 24.0107 53.5407 24.256 52.41 24.256C51.066 24.256 49.8607 23.9147 48.794 23.232C47.7487 22.5493 46.9273 21.5893 46.33 20.352C45.754 19.0933 45.466 17.6533 45.466 16.032C45.466 14.4107 45.754 12.992 46.33 11.776C46.9273 10.56 47.7487 9.62133 48.794 8.96C49.8393 8.29867 51.0447 7.968 52.41 7.968C53.5407 7.968 54.5433 8.20267 55.418 8.672C56.2927 9.14133 56.9647 9.80267 57.434 10.656V3.072C57.434 2.53867 57.6047 2.112 57.946 1.792C58.3087 1.45067 58.7887 1.28 59.386 1.28ZM53.466 21.152C54.746 21.152 55.7273 20.7147 56.41 19.84C57.114 18.9653 57.466 17.7173 57.466 16.096C57.466 14.4747 57.114 13.2373 56.41 12.384C55.7273 11.5093 54.7567 11.072 53.498 11.072C52.218 11.072 51.226 11.4987 50.522 12.352C49.818 13.2053 49.466 14.432 49.466 16.032C49.466 17.6533 49.818 18.912 50.522 19.808C51.226 20.704 52.2073 21.152 53.466 21.152ZM77.9328 19.712C78.2954 19.712 78.5834 19.8507 78.7968 20.128C79.0314 20.4053 79.1488 20.7787 79.1488 21.248C79.1488 21.9093 78.7541 22.464 77.9648 22.912C77.2394 23.3173 76.4181 23.648 75.5008 23.904C74.5834 24.1387 73.7088 24.256 72.8767 24.256C70.3594 24.256 68.3648 23.5307 66.8928 22.08C65.4208 20.6293 64.6848 18.6453 64.6848 16.128C64.6848 14.528 65.0048 13.1093 65.6448 11.872C66.2848 10.6347 67.1808 9.67467 68.3328 8.992C69.5061 8.30933 70.8288 7.968 72.3008 7.968C73.7088 7.968 74.9354 8.27733 75.9808 8.896C77.0261 9.51467 77.8368 10.3893 78.4128 11.52C78.9888 12.6507 79.2768 13.984 79.2768 15.52C79.2768 16.4373 78.8714 16.896 78.0608 16.896H68.6208C68.7488 18.368 69.1648 19.456 69.8688 20.16C70.5728 20.8427 71.5968 21.184 72.9408 21.184C73.6234 21.184 74.2208 21.0987 74.7328 20.928C75.2661 20.7573 75.8634 20.5227 76.5248 20.224C77.1648 19.8827 77.6341 19.712 77.9328 19.712ZM72.3968 10.784C71.3088 10.784 70.4341 11.1253 69.7728 11.808C69.1328 12.4907 68.7488 13.472 68.6208 14.752H75.8528C75.8101 13.4507 75.4901 12.4693 74.8928 11.808C74.2954 11.1253 73.4634 10.784 72.3968 10.784ZM91.2848 8.032C91.8394 7.98933 92.2768 8.10667 92.5968 8.384C92.9168 8.66133 93.0768 9.07733 93.0768 9.632C93.0768 10.208 92.9381 10.6347 92.6608 10.912C92.3834 11.1893 91.8821 11.3707 91.1568 11.456L90.1968 11.552C88.9381 11.68 88.0101 12.1067 87.4128 12.832C86.8368 13.5573 86.5488 14.464 86.5488 15.552V22.272C86.5488 22.8907 86.3568 23.3707 85.9728 23.712C85.5888 24.032 85.1088 24.192 84.5328 24.192C83.9568 24.192 83.4768 24.032 83.0928 23.712C82.7301 23.3707 82.5488 22.8907 82.5488 22.272V9.888C82.5488 9.29067 82.7301 8.832 83.0928 8.512C83.4768 8.192 83.9461 8.032 84.5008 8.032C85.0554 8.032 85.5034 8.192 85.8448 8.512C86.1861 8.81067 86.3568 9.248 86.3568 9.824V11.104C86.7621 10.1653 87.3594 9.44 88.1488 8.928C88.9594 8.416 89.8554 8.128 90.8368 8.064L91.2848 8.032ZM117.726 12.352C119.028 12.7147 120.03 13.376 120.734 14.336C121.46 15.296 121.822 16.4693 121.822 17.856C121.822 19.776 121.129 21.28 119.742 22.368C118.377 23.456 116.489 24 114.078 24H105.822C105.204 24 104.713 23.8293 104.35 23.488C104.009 23.1467 103.838 22.6667 103.838 22.048V3.392C103.838 2.77333 104.009 2.29333 104.35 1.952C104.713 1.61067 105.204 1.44 105.822 1.44H113.758C116.105 1.44 117.94 1.96267 119.262 3.008C120.606 4.032 121.278 5.472 121.278 7.328C121.278 8.52267 120.958 9.55733 120.318 10.432C119.7 11.3067 118.836 11.9467 117.726 12.352ZM107.87 10.944H113.086C115.924 10.944 117.342 9.888 117.342 7.776C117.342 6.70933 116.99 5.92 116.286 5.408C115.582 4.896 114.516 4.64 113.086 4.64H107.87V10.944ZM113.63 20.8C115.124 20.8 116.212 20.5333 116.894 20C117.577 19.4667 117.918 18.6347 117.918 17.504C117.918 16.3733 117.566 15.5307 116.862 14.976C116.18 14.4213 115.102 14.144 113.63 14.144H107.87V20.8H113.63ZM132.762 24.16C132.122 24.16 131.61 23.9787 131.226 23.616C130.863 23.232 130.682 22.7307 130.682 22.112V4.832H124.858C123.578 4.832 122.938 4.26667 122.938 3.136C122.938 2.00533 123.578 1.44 124.858 1.44H140.634C141.914 1.44 142.554 2.00533 142.554 3.136C142.554 4.26667 141.914 4.832 140.634 4.832H134.81V22.112C134.81 22.7307 134.618 23.232 134.234 23.616C133.871 23.9787 133.38 24.16 132.762 24.16ZM153.731 24.288C151.555 24.288 149.645 23.8187 148.003 22.88C146.381 21.9413 145.133 20.5973 144.259 18.848C143.384 17.0987 142.947 15.0507 142.947 12.704C142.947 10.3573 143.384 8.32 144.259 6.592C145.133 4.84267 146.381 3.49867 148.003 2.56C149.645 1.62133 151.555 1.152 153.731 1.152C155.139 1.152 156.461 1.36533 157.699 1.792C158.936 2.19733 160.035 2.79467 160.995 3.584C161.272 3.79733 161.464 4.02133 161.571 4.256C161.677 4.49067 161.731 4.77867 161.731 5.12C161.731 5.58933 161.603 5.984 161.347 6.304C161.091 6.624 160.781 6.784 160.419 6.784C159.992 6.784 159.555 6.63467 159.107 6.336C158.189 5.65333 157.336 5.184 156.547 4.928C155.757 4.65067 154.883 4.512 153.923 4.512C151.704 4.512 150.019 5.20533 148.867 6.592C147.736 7.97867 147.171 10.016 147.171 12.704C147.171 15.4133 147.736 17.4613 148.867 18.848C150.019 20.2347 151.704 20.928 153.923 20.928C154.84 20.928 155.683 20.7893 156.451 20.512C157.24 20.2347 158.125 19.7653 159.107 19.104C159.32 18.976 159.533 18.8693 159.747 18.784C159.96 18.6987 160.184 18.656 160.419 18.656C160.781 18.656 161.091 18.816 161.347 19.136C161.603 19.456 161.731 19.8507 161.731 20.32C161.731 20.64 161.677 20.928 161.571 21.184C161.464 21.4187 161.272 21.6427 160.995 21.856C160.035 22.6453 158.936 23.2533 157.699 23.68C156.461 24.0853 155.139 24.288 153.731 24.288Z" fill="#858080"/>
</svg>
