<svg width="176" height="24" viewBox="0 0 176 24" fill="none" xmlns="http://www.w3.org/2000/svg">
<path d="M14.32 11.352C15.6213 11.7147 16.624 12.376 17.328 13.336C18.0533 14.296 18.416 15.4693 18.416 16.856C18.416 18.776 17.7227 20.28 16.336 21.368C14.9707 22.456 13.0827 23 10.672 23H2.416C1.79733 23 1.30667 22.8293 0.944 22.488C0.602667 22.1467 0.432 21.6667 0.432 21.048V2.392C0.432 1.77333 0.602667 1.29333 0.944 0.952C1.30667 0.610666 1.79733 0.439999 2.416 0.439999H10.352C12.6987 0.439999 14.5333 0.962666 15.856 2.008C17.2 3.032 17.872 4.472 17.872 6.328C17.872 7.52267 17.552 8.55733 16.912 9.432C16.2933 10.3067 15.4293 10.9467 14.32 11.352ZM4.464 9.944H9.68C12.5173 9.944 13.936 8.888 13.936 6.776C13.936 5.70933 13.584 4.92 12.88 4.408C12.176 3.896 11.1093 3.64 9.68 3.64H4.464V9.944ZM10.224 19.8C11.7173 19.8 12.8053 19.5333 13.488 19C14.1707 18.4667 14.512 17.6347 14.512 16.504C14.512 15.3733 14.16 14.5307 13.456 13.976C12.7733 13.4213 11.696 13.144 10.224 13.144H4.464V19.8H10.224ZM28.7078 6.968C30.8838 6.968 32.4944 7.512 33.5398 8.6C34.6064 9.66667 35.1398 11.2987 35.1398 13.496V21.304C35.1398 21.88 34.9691 22.3387 34.6278 22.68C34.2864 23 33.8171 23.16 33.2198 23.16C32.6651 23.16 32.2064 22.9893 31.8438 22.648C31.5024 22.3067 31.3318 21.8587 31.3318 21.304V20.6C30.9691 21.432 30.3931 22.0827 29.6038 22.552C28.8358 23.0213 27.9398 23.256 26.9158 23.256C25.8704 23.256 24.9211 23.0427 24.0677 22.616C23.2144 22.1893 22.5424 21.6027 22.0518 20.856C21.5611 20.1093 21.3158 19.2773 21.3158 18.36C21.3158 17.208 21.6038 16.3013 22.1798 15.64C22.7771 14.9787 23.7371 14.4987 25.0598 14.2C26.3824 13.9013 28.2064 13.752 30.5318 13.752H31.3318V13.016C31.3318 11.9707 31.1078 11.2133 30.6598 10.744C30.2118 10.2533 29.4864 10.008 28.4838 10.008C27.8651 10.008 27.2358 10.104 26.5958 10.296C25.9558 10.4667 25.1984 10.7227 24.3238 11.064C23.7691 11.3413 23.3638 11.48 23.1078 11.48C22.7238 11.48 22.4038 11.3413 22.1478 11.064C21.9131 10.7867 21.7958 10.424 21.7958 9.976C21.7958 9.61333 21.8811 9.304 22.0518 9.048C22.2438 8.77067 22.5531 8.51467 22.9798 8.28C23.7264 7.87467 24.6118 7.55467 25.6358 7.32C26.6811 7.08533 27.7051 6.968 28.7078 6.968ZM27.7158 20.376C28.7824 20.376 29.6464 20.024 30.3078 19.32C30.9904 18.5947 31.3318 17.6667 31.3318 16.536V15.864H30.7558C29.3264 15.864 28.2171 15.928 27.4278 16.056C26.6384 16.184 26.0731 16.408 25.7318 16.728C25.3904 17.048 25.2198 17.4853 25.2198 18.04C25.2198 18.7227 25.4544 19.288 25.9238 19.736C26.4144 20.1627 27.0118 20.376 27.7158 20.376ZM48.293 6.968C50.1703 6.968 51.5677 7.50133 52.485 8.568C53.4023 9.63467 53.861 11.2453 53.861 13.4V21.272C53.861 21.8693 53.6797 22.3387 53.317 22.68C52.9757 23.0213 52.4957 23.192 51.877 23.192C51.2583 23.192 50.7677 23.0213 50.405 22.68C50.0423 22.3387 49.861 21.8693 49.861 21.272V13.624C49.861 12.408 49.6263 11.5227 49.157 10.968C48.709 10.4133 47.9943 10.136 47.013 10.136C45.861 10.136 44.933 10.4987 44.229 11.224C43.5463 11.9493 43.205 12.92 43.205 14.136V21.272C43.205 21.8693 43.0237 22.3387 42.661 22.68C42.2983 23.0213 41.8077 23.192 41.189 23.192C40.5703 23.192 40.0797 23.0213 39.717 22.68C39.3757 22.3387 39.205 21.8693 39.205 21.272V8.888C39.205 8.33333 39.3863 7.88533 39.749 7.544C40.1117 7.20267 40.6023 7.032 41.221 7.032C41.7757 7.032 42.2237 7.20267 42.565 7.544C42.9277 7.864 43.109 8.29067 43.109 8.824V9.688C43.6423 8.81333 44.357 8.14133 45.253 7.672C46.149 7.20267 47.1623 6.968 48.293 6.968ZM64.8678 23.256C63.3104 23.256 61.9344 22.9253 60.7398 22.264C59.5664 21.6027 58.6598 20.664 58.0198 19.448C57.3798 18.232 57.0598 16.8133 57.0598 15.192C57.0598 13.5707 57.3904 12.1413 58.0518 10.904C58.7344 9.64533 59.6838 8.67467 60.8998 7.992C62.1158 7.30933 63.5131 6.968 65.0918 6.968C65.9238 6.968 66.7558 7.08533 67.5878 7.32C68.4411 7.55467 69.1878 7.87467 69.8278 8.28C70.5104 8.728 70.8518 9.29333 70.8518 9.976C70.8518 10.4453 70.7344 10.8293 70.4998 11.128C70.2864 11.4053 69.9984 11.544 69.6358 11.544C69.4011 11.544 69.1558 11.4907 68.8998 11.384C68.6438 11.2773 68.3878 11.1493 68.1318 11C67.6624 10.7227 67.2144 10.5093 66.7878 10.36C66.3611 10.1893 65.8704 10.104 65.3158 10.104C63.9931 10.104 62.9691 10.5413 62.2438 11.416C61.5398 12.2693 61.1878 13.5067 61.1878 15.128C61.1878 16.728 61.5398 17.9653 62.2438 18.84C62.9691 19.6933 63.9931 20.12 65.3158 20.12C65.8491 20.12 66.3184 20.0453 66.7238 19.896C67.1504 19.7253 67.6198 19.5013 68.1318 19.224C68.4518 19.032 68.7291 18.8933 68.9638 18.808C69.1984 18.7013 69.4331 18.648 69.6678 18.648C70.0091 18.648 70.2971 18.7973 70.5318 19.096C70.7664 19.3947 70.8838 19.768 70.8838 20.216C70.8838 20.5787 70.7984 20.8987 70.6278 21.176C70.4784 21.432 70.2224 21.6667 69.8598 21.88C69.1984 22.3067 68.4304 22.648 67.5558 22.904C66.6811 23.1387 65.7851 23.256 64.8678 23.256ZM80.6848 23.256C79.0848 23.256 77.6768 22.9253 76.4608 22.264C75.2661 21.6027 74.3381 20.6533 73.6768 19.416C73.0154 18.1787 72.6848 16.7387 72.6848 15.096C72.6848 13.4533 73.0154 12.024 73.6768 10.808C74.3381 9.57067 75.2661 8.62133 76.4608 7.96C77.6768 7.29867 79.0848 6.968 80.6848 6.968C82.2848 6.968 83.6821 7.29867 84.8768 7.96C86.0928 8.62133 87.0208 9.57067 87.6608 10.808C88.3221 12.024 88.6528 13.4533 88.6528 15.096C88.6528 16.7387 88.3221 18.1787 87.6608 19.416C87.0208 20.6533 86.0928 21.6027 84.8768 22.264C83.6821 22.9253 82.2848 23.256 80.6848 23.256ZM80.6528 20.152C81.9541 20.152 82.9461 19.7253 83.6288 18.872C84.3114 18.0187 84.6528 16.76 84.6528 15.096C84.6528 13.4533 84.3114 12.2053 83.6288 11.352C82.9461 10.4773 81.9648 10.04 80.6848 10.04C79.4048 10.04 78.4128 10.4773 77.7088 11.352C77.0261 12.2053 76.6848 13.4533 76.6848 15.096C76.6848 16.76 77.0261 18.0187 77.7088 18.872C78.3914 19.7253 79.3728 20.152 80.6528 20.152ZM100.579 23.192C98.9358 23.256 98.1145 22.6907 98.1145 21.496C98.1145 20.984 98.2532 20.6 98.5305 20.344C98.7865 20.0667 99.2025 19.9067 99.7785 19.864L100.803 19.8C101.677 19.7573 102.339 19.48 102.786 18.968C103.235 18.456 103.459 17.6773 103.459 16.632V2.328C103.459 1.70933 103.64 1.21867 104.003 0.855999C104.387 0.471999 104.888 0.279999 105.507 0.279999C106.147 0.279999 106.648 0.471999 107.01 0.855999C107.395 1.21867 107.587 1.70933 107.587 2.328V16.632C107.587 20.664 105.592 22.8293 101.603 23.128L100.579 23.192ZM129.647 10.808C130.138 10.808 130.533 10.9573 130.831 11.256C131.13 11.5333 131.279 11.9067 131.279 12.376V19.256C131.279 20.2373 131.151 20.9307 130.895 21.336C130.639 21.7413 130.117 22.072 129.327 22.328C128.474 22.6267 127.482 22.8613 126.351 23.032C125.221 23.2027 124.133 23.288 123.087 23.288C120.762 23.288 118.746 22.8293 117.039 21.912C115.333 20.9947 114.021 19.672 113.103 17.944C112.207 16.1947 111.759 14.1147 111.759 11.704C111.759 9.336 112.207 7.288 113.103 5.56C114.021 3.81067 115.311 2.47733 116.975 1.56C118.639 0.621332 120.602 0.151999 122.863 0.151999C125.871 0.151999 128.335 0.962666 130.255 2.584C130.511 2.81867 130.693 3.05333 130.799 3.288C130.927 3.52267 130.991 3.8 130.991 4.12C130.991 4.58933 130.863 4.984 130.607 5.304C130.351 5.624 130.042 5.784 129.679 5.784C129.445 5.784 129.231 5.752 129.039 5.688C128.847 5.60267 128.623 5.47467 128.367 5.304C127.429 4.64267 126.554 4.184 125.743 3.928C124.933 3.65067 124.015 3.512 122.991 3.512C120.666 3.512 118.906 4.20533 117.711 5.592C116.538 6.95733 115.951 8.99467 115.951 11.704C115.951 17.2507 118.383 20.024 123.247 20.024C124.698 20.024 126.149 19.8213 127.599 19.416V13.752H123.983C123.471 13.752 123.066 13.624 122.767 13.368C122.49 13.112 122.351 12.7493 122.351 12.28C122.351 11.8107 122.49 11.448 122.767 11.192C123.066 10.936 123.471 10.808 123.983 10.808H129.647ZM143.74 23.288C142.097 23.288 140.54 23.0747 139.068 22.648C137.617 22.2 136.433 21.6027 135.516 20.856C135.025 20.4933 134.78 19.9813 134.78 19.32C134.78 18.872 134.908 18.488 135.164 18.168C135.441 17.8267 135.761 17.656 136.124 17.656C136.508 17.656 136.945 17.8053 137.436 18.104C138.353 18.7653 139.313 19.2453 140.316 19.544C141.319 19.8427 142.428 19.992 143.644 19.992C145.201 19.992 146.396 19.7253 147.228 19.192C148.06 18.6373 148.476 17.8373 148.476 16.792C148.476 15.9813 148.081 15.3627 147.292 14.936C146.524 14.488 145.233 14.0613 143.42 13.656C141.543 13.2507 140.017 12.7813 138.844 12.248C137.671 11.7147 136.785 11.032 136.188 10.2C135.591 9.368 135.292 8.312 135.292 7.032C135.292 5.70933 135.665 4.52533 136.412 3.48C137.159 2.43467 138.193 1.624 139.516 1.048C140.86 0.450665 142.364 0.151999 144.028 0.151999C147.079 0.151999 149.564 0.962666 151.484 2.584C151.761 2.81867 151.953 3.05333 152.06 3.288C152.188 3.50133 152.252 3.77867 152.252 4.12C152.252 4.568 152.113 4.96267 151.836 5.304C151.58 5.624 151.271 5.784 150.908 5.784C150.695 5.784 150.492 5.752 150.3 5.688C150.129 5.624 149.895 5.50667 149.596 5.336C148.721 4.696 147.868 4.22667 147.036 3.928C146.225 3.608 145.223 3.448 144.028 3.448C142.577 3.448 141.425 3.74667 140.572 4.344C139.74 4.92 139.324 5.73067 139.324 6.776C139.324 7.65067 139.697 8.32267 140.444 8.792C141.191 9.26133 142.46 9.69867 144.252 10.104C146.151 10.5307 147.687 11.0107 148.86 11.544C150.055 12.056 150.961 12.7173 151.58 13.528C152.22 14.3387 152.54 15.352 152.54 16.568C152.54 17.8907 152.167 19.064 151.42 20.088C150.695 21.0907 149.66 21.88 148.316 22.456C146.993 23.0107 145.468 23.288 143.74 23.288ZM173.522 10.808C174.013 10.808 174.408 10.9573 174.706 11.256C175.005 11.5333 175.154 11.9067 175.154 12.376V19.256C175.154 20.2373 175.026 20.9307 174.77 21.336C174.514 21.7413 173.992 22.072 173.202 22.328C172.349 22.6267 171.357 22.8613 170.226 23.032C169.096 23.2027 168.008 23.288 166.962 23.288C164.637 23.288 162.621 22.8293 160.914 21.912C159.208 20.9947 157.896 19.672 156.978 17.944C156.082 16.1947 155.634 14.1147 155.634 11.704C155.634 9.336 156.082 7.288 156.978 5.56C157.896 3.81067 159.186 2.47733 160.85 1.56C162.514 0.621332 164.477 0.151999 166.738 0.151999C169.746 0.151999 172.21 0.962666 174.13 2.584C174.386 2.81867 174.568 3.05333 174.674 3.288C174.802 3.52267 174.866 3.8 174.866 4.12C174.866 4.58933 174.738 4.984 174.482 5.304C174.226 5.624 173.917 5.784 173.554 5.784C173.32 5.784 173.106 5.752 172.914 5.688C172.722 5.60267 172.498 5.47467 172.242 5.304C171.304 4.64267 170.429 4.184 169.618 3.928C168.808 3.65067 167.89 3.512 166.866 3.512C164.541 3.512 162.781 4.20533 161.586 5.592C160.413 6.95733 159.826 8.99467 159.826 11.704C159.826 17.2507 162.258 20.024 167.122 20.024C168.573 20.024 170.024 19.8213 171.474 19.416V13.752H167.858C167.346 13.752 166.941 13.624 166.642 13.368C166.365 13.112 166.226 12.7493 166.226 12.28C166.226 11.8107 166.365 11.448 166.642 11.192C166.941 10.936 167.346 10.808 167.858 10.808H173.522Z" fill="#858080"/>
</svg>
