<svg width="111" height="75" viewBox="0 0 111 75" fill="none" xmlns="http://www.w3.org/2000/svg">
<path d="M42.4484 1.28C43.0457 1.28 43.5257 1.472 43.8884 1.856C44.251 2.21867 44.4324 2.70933 44.4324 3.328V22.272C44.4324 22.8693 44.2617 23.3387 43.9204 23.68C43.579 24.0213 43.131 24.192 42.5764 24.192C42.0217 24.192 41.5844 24.0213 41.2644 23.68C40.9444 23.3387 40.7844 22.8693 40.7844 22.272V9.088L35.3444 19.392C35.0884 19.8613 34.811 20.2133 34.5124 20.448C34.2137 20.6613 33.8617 20.768 33.4564 20.768C33.051 20.768 32.699 20.6613 32.4004 20.448C32.1017 20.2347 31.8244 19.8827 31.5684 19.392L26.0964 9.248V22.272C26.0964 22.848 25.9257 23.3173 25.5844 23.68C25.2644 24.0213 24.827 24.192 24.2724 24.192C23.7177 24.192 23.2804 24.0213 22.9604 23.68C22.6404 23.3387 22.4804 22.8693 22.4804 22.272V3.328C22.4804 2.70933 22.651 2.21867 22.9924 1.856C23.355 1.472 23.835 1.28 24.4324 1.28C25.2644 1.28 25.915 1.73867 26.3844 2.656L33.4884 16.192L40.5604 2.656C41.0297 1.73867 41.659 1.28 42.4484 1.28ZM55.7546 7.968C57.9306 7.968 59.5413 8.512 60.5866 9.6C61.6533 10.6667 62.1866 12.2987 62.1866 14.496V22.304C62.1866 22.88 62.016 23.3387 61.6746 23.68C61.3333 24 60.864 24.16 60.2666 24.16C59.712 24.16 59.2533 23.9893 58.8906 23.648C58.5493 23.3067 58.3786 22.8587 58.3786 22.304V21.6C58.016 22.432 57.44 23.0827 56.6506 23.552C55.8826 24.0213 54.9866 24.256 53.9626 24.256C52.9173 24.256 51.968 24.0427 51.1146 23.616C50.2613 23.1893 49.5893 22.6027 49.0986 21.856C48.608 21.1093 48.3626 20.2773 48.3626 19.36C48.3626 18.208 48.6506 17.3013 49.2266 16.64C49.824 15.9787 50.784 15.4987 52.1066 15.2C53.4293 14.9013 55.2533 14.752 57.5786 14.752H58.3786V14.016C58.3786 12.9707 58.1546 12.2133 57.7066 11.744C57.2586 11.2533 56.5333 11.008 55.5306 11.008C54.912 11.008 54.2826 11.104 53.6426 11.296C53.0026 11.4667 52.2453 11.7227 51.3706 12.064C50.816 12.3413 50.4106 12.48 50.1546 12.48C49.7706 12.48 49.4506 12.3413 49.1946 12.064C48.96 11.7867 48.8426 11.424 48.8426 10.976C48.8426 10.6133 48.928 10.304 49.0986 10.048C49.2906 9.77067 49.6 9.51467 50.0266 9.28C50.7733 8.87467 51.6586 8.55467 52.6826 8.32C53.728 8.08533 54.752 7.968 55.7546 7.968ZM54.7626 21.376C55.8293 21.376 56.6933 21.024 57.3546 20.32C58.0373 19.5947 58.3786 18.6667 58.3786 17.536V16.864H57.8026C56.3733 16.864 55.264 16.928 54.4746 17.056C53.6853 17.184 53.12 17.408 52.7786 17.728C52.4373 18.048 52.2666 18.4853 52.2666 19.04C52.2666 19.7227 52.5013 20.288 52.9706 20.736C53.4613 21.1627 54.0586 21.376 54.7626 21.376ZM68.2359 24.192C67.6599 24.192 67.1799 24.032 66.7959 23.712C66.4332 23.3707 66.2519 22.8907 66.2519 22.272V9.92C66.2519 9.30133 66.4332 8.832 66.7959 8.512C67.1799 8.192 67.6599 8.032 68.2359 8.032C68.8119 8.032 69.2919 8.192 69.6759 8.512C70.0599 8.832 70.2519 9.30133 70.2519 9.92V22.272C70.2519 22.8907 70.0599 23.3707 69.6759 23.712C69.2919 24.032 68.8119 24.192 68.2359 24.192ZM68.2359 5.184C67.5105 5.184 66.9345 4.992 66.5079 4.608C66.0812 4.20267 65.8679 3.68 65.8679 3.04C65.8679 2.4 66.0812 1.888 66.5079 1.504C66.9345 1.12 67.5105 0.927999 68.2359 0.927999C68.9399 0.927999 69.5052 1.12 69.9319 1.504C70.3799 1.888 70.6039 2.4 70.6039 3.04C70.6039 3.68 70.3905 4.20267 69.9639 4.608C69.5372 4.992 68.9612 5.184 68.2359 5.184ZM83.4649 7.968C85.3422 7.968 86.7395 8.50133 87.6569 9.568C88.5742 10.6347 89.0329 12.2453 89.0329 14.4V22.272C89.0329 22.8693 88.8515 23.3387 88.4889 23.68C88.1475 24.0213 87.6675 24.192 87.0489 24.192C86.4302 24.192 85.9395 24.0213 85.5769 23.68C85.2142 23.3387 85.0329 22.8693 85.0329 22.272V14.624C85.0329 13.408 84.7982 12.5227 84.3289 11.968C83.8809 11.4133 83.1662 11.136 82.1849 11.136C81.0329 11.136 80.1049 11.4987 79.4009 12.224C78.7182 12.9493 78.3769 13.92 78.3769 15.136V22.272C78.3769 22.8693 78.1955 23.3387 77.8329 23.68C77.4702 24.0213 76.9795 24.192 76.3609 24.192C75.7422 24.192 75.2515 24.0213 74.8889 23.68C74.5475 23.3387 74.3769 22.8693 74.3769 22.272V9.888C74.3769 9.33333 74.5582 8.88533 74.9209 8.544C75.2835 8.20267 75.7742 8.032 76.3929 8.032C76.9475 8.032 77.3955 8.20267 77.7369 8.544C78.0995 8.864 78.2809 9.29067 78.2809 9.824V10.688C78.8142 9.81333 79.5289 9.14133 80.4249 8.672C81.3209 8.20267 82.3342 7.968 83.4649 7.968ZM22.7238 65.536C22.8518 65.8133 22.9158 66.0907 22.9158 66.368C22.9158 66.8587 22.7131 67.2747 22.3078 67.616C21.9238 67.9573 21.4758 68.128 20.9638 68.128C20.6224 68.128 20.3024 68.0427 20.0038 67.872C19.7051 67.68 19.4704 67.392 19.2998 67.008L17.3798 62.72H6.11575L4.19575 67.008C4.02508 67.392 3.79042 67.68 3.49175 67.872C3.19308 68.0427 2.86242 68.128 2.49975 68.128C2.00908 68.128 1.56108 67.9573 1.15575 67.616C0.750417 67.2747 0.54775 66.8587 0.54775 66.368C0.54775 66.0907 0.61175 65.8133 0.73975 65.536L9.57175 46.56C9.76375 46.1333 10.0518 45.8133 10.4358 45.6C10.8411 45.3653 11.2678 45.248 11.7158 45.248C12.1638 45.248 12.5798 45.3653 12.9638 45.6C13.3691 45.8133 13.6678 46.1333 13.8598 46.56L22.7238 65.536ZM7.52375 59.52H15.9718L11.7478 50.016L7.52375 59.52ZM38.9218 52.032C39.5191 52.032 39.9991 52.2027 40.3618 52.544C40.7244 52.8853 40.9058 53.344 40.9058 53.92V66.56C40.9058 69.0133 40.2231 70.8693 38.8578 72.128C37.4924 73.3867 35.4764 74.016 32.8098 74.016C30.4844 74.016 28.5431 73.5787 26.9858 72.704C26.1964 72.2347 25.8018 71.6693 25.8018 71.008C25.8018 70.5387 25.9084 70.1653 26.1218 69.888C26.3564 69.6107 26.6551 69.472 27.0178 69.472C27.2098 69.472 27.4444 69.5147 27.7218 69.6C27.9991 69.7067 28.2871 69.824 28.5858 69.952C29.3538 70.272 30.0364 70.5173 30.6338 70.688C31.2524 70.8587 31.9564 70.944 32.7458 70.944C35.5404 70.944 36.9378 69.5787 36.9378 66.848V64.8C36.4684 65.6747 35.7858 66.3573 34.8898 66.848C33.9938 67.3173 32.9698 67.552 31.8177 67.552C30.4524 67.552 29.2364 67.232 28.1698 66.592C27.1244 65.9307 26.3031 65.0133 25.7057 63.84C25.1084 62.6667 24.8098 61.312 24.8098 59.776C24.8098 58.24 25.0978 56.8853 25.6738 55.712C26.2711 54.5173 27.1031 53.6 28.1698 52.96C29.2364 52.2987 30.4524 51.968 31.8177 51.968C32.9698 51.968 33.9938 52.2133 34.8898 52.704C35.7858 53.1733 36.4684 53.8453 36.9378 54.72V53.888C36.9378 53.3333 37.1191 52.8853 37.4818 52.544C37.8444 52.2027 38.3244 52.032 38.9218 52.032ZM32.8738 64.448C34.1538 64.448 35.1458 64.032 35.8498 63.2C36.5751 62.368 36.9378 61.2267 36.9378 59.776C36.9378 58.304 36.5751 57.152 35.8498 56.32C35.1458 55.488 34.1538 55.072 32.8738 55.072C31.6151 55.072 30.6231 55.488 29.8978 56.32C29.1724 57.152 28.8098 58.304 28.8098 59.776C28.8098 61.2267 29.1724 62.368 29.8978 63.2C30.6231 64.032 31.6151 64.448 32.8738 64.448ZM57.4328 63.712C57.7954 63.712 58.0834 63.8507 58.2968 64.128C58.5314 64.4053 58.6488 64.7787 58.6488 65.248C58.6488 65.9093 58.2541 66.464 57.4648 66.912C56.7394 67.3173 55.9181 67.648 55.0008 67.904C54.0834 68.1387 53.2088 68.256 52.3767 68.256C49.8594 68.256 47.8648 67.5307 46.3928 66.08C44.9208 64.6293 44.1848 62.6453 44.1848 60.128C44.1848 58.528 44.5048 57.1093 45.1448 55.872C45.7848 54.6347 46.6808 53.6747 47.8328 52.992C49.0061 52.3093 50.3288 51.968 51.8008 51.968C53.2088 51.968 54.4354 52.2773 55.4808 52.896C56.5261 53.5147 57.3368 54.3893 57.9128 55.52C58.4888 56.6507 58.7768 57.984 58.7768 59.52C58.7768 60.4373 58.3714 60.896 57.5608 60.896H48.1208C48.2488 62.368 48.6648 63.456 49.3688 64.16C50.0728 64.8427 51.0968 65.184 52.4408 65.184C53.1234 65.184 53.7208 65.0987 54.2328 64.928C54.7661 64.7573 55.3634 64.5227 56.0248 64.224C56.6648 63.8827 57.1341 63.712 57.4328 63.712ZM51.8968 54.784C50.8088 54.784 49.9341 55.1253 49.2728 55.808C48.6328 56.4907 48.2488 57.472 48.1208 58.752H55.3528C55.3101 57.4507 54.9901 56.4693 54.3928 55.808C53.7954 55.1253 52.9634 54.784 51.8968 54.784ZM71.1368 51.968C73.0141 51.968 74.4114 52.5013 75.3288 53.568C76.2461 54.6347 76.7048 56.2453 76.7048 58.4V66.272C76.7048 66.8693 76.5234 67.3387 76.1608 67.68C75.8194 68.0213 75.3394 68.192 74.7208 68.192C74.1021 68.192 73.6114 68.0213 73.2488 67.68C72.8861 67.3387 72.7048 66.8693 72.7048 66.272V58.624C72.7048 57.408 72.4701 56.5227 72.0008 55.968C71.5528 55.4133 70.8381 55.136 69.8568 55.136C68.7048 55.136 67.7768 55.4987 67.0728 56.224C66.3901 56.9493 66.0488 57.92 66.0488 59.136V66.272C66.0488 66.8693 65.8674 67.3387 65.5048 67.68C65.1421 68.0213 64.6514 68.192 64.0328 68.192C63.4141 68.192 62.9234 68.0213 62.5608 67.68C62.2194 67.3387 62.0488 66.8693 62.0488 66.272V53.888C62.0488 53.3333 62.2301 52.8853 62.5928 52.544C62.9554 52.2027 63.4461 52.032 64.0648 52.032C64.6194 52.032 65.0674 52.2027 65.4088 52.544C65.7714 52.864 65.9528 53.2907 65.9528 53.824V54.688C66.4861 53.8133 67.2008 53.1413 68.0968 52.672C68.9928 52.2027 70.0061 51.968 71.1368 51.968ZM87.7115 68.256C86.1542 68.256 84.7782 67.9253 83.5835 67.264C82.4102 66.6027 81.5035 65.664 80.8635 64.448C80.2235 63.232 79.9035 61.8133 79.9035 60.192C79.9035 58.5707 80.2342 57.1413 80.8955 55.904C81.5782 54.6453 82.5275 53.6747 83.7435 52.992C84.9595 52.3093 86.3568 51.968 87.9355 51.968C88.7675 51.968 89.5995 52.0853 90.4315 52.32C91.2848 52.5547 92.0315 52.8747 92.6715 53.28C93.3542 53.728 93.6955 54.2933 93.6955 54.976C93.6955 55.4453 93.5782 55.8293 93.3435 56.128C93.1302 56.4053 92.8422 56.544 92.4795 56.544C92.2448 56.544 91.9995 56.4907 91.7435 56.384C91.4875 56.2773 91.2315 56.1493 90.9755 56C90.5062 55.7227 90.0582 55.5093 89.6315 55.36C89.2048 55.1893 88.7142 55.104 88.1595 55.104C86.8368 55.104 85.8128 55.5413 85.0875 56.416C84.3835 57.2693 84.0315 58.5067 84.0315 60.128C84.0315 61.728 84.3835 62.9653 85.0875 63.84C85.8128 64.6933 86.8368 65.12 88.1595 65.12C88.6928 65.12 89.1622 65.0453 89.5675 64.896C89.9942 64.7253 90.4635 64.5013 90.9755 64.224C91.2955 64.032 91.5728 63.8933 91.8075 63.808C92.0422 63.7013 92.2768 63.648 92.5115 63.648C92.8528 63.648 93.1408 63.7973 93.3755 64.096C93.6102 64.3947 93.7275 64.768 93.7275 65.216C93.7275 65.5787 93.6422 65.8987 93.4715 66.176C93.3222 66.432 93.0662 66.6667 92.7035 66.88C92.0422 67.3067 91.2742 67.648 90.3995 67.904C89.5248 68.1387 88.6288 68.256 87.7115 68.256ZM107.305 53.184C107.475 52.8 107.699 52.5227 107.977 52.352C108.275 52.16 108.595 52.064 108.937 52.064C109.427 52.064 109.865 52.2347 110.249 52.576C110.654 52.896 110.857 53.3013 110.857 53.792C110.857 54.0267 110.793 54.272 110.665 54.528L101.929 72.832C101.566 73.5573 101.001 73.92 100.233 73.92C99.7418 73.92 99.3045 73.76 98.9205 73.44C98.5578 73.1413 98.3765 72.7573 98.3765 72.288C98.3765 72.0533 98.4405 71.7867 98.5685 71.488L100.745 66.912L94.7925 54.528C94.6858 54.3147 94.6325 54.0693 94.6325 53.792C94.6325 53.3013 94.8352 52.8853 95.2405 52.544C95.6672 52.2027 96.1472 52.032 96.6805 52.032C97.0432 52.032 97.3738 52.128 97.6725 52.32C97.9712 52.4907 98.2058 52.768 98.3765 53.152L102.857 63.04L107.305 53.184Z" fill="#858080"/>
</svg>
