<svg width="148" height="73" viewBox="0 0 148 73" fill="none" xmlns="http://www.w3.org/2000/svg">
<path d="M52.7613 20.408C53.0173 20.792 53.1453 21.1653 53.1453 21.528C53.1453 22.0187 52.9426 22.424 52.5373 22.744C52.1533 23.064 51.6946 23.224 51.1613 23.224C50.8199 23.224 50.4893 23.1493 50.1693 23C49.8706 22.8293 49.6146 22.584 49.4013 22.264L45.1453 15.8C44.7186 15.1173 44.2599 14.6373 43.7693 14.36C43.2999 14.0827 42.6813 13.944 41.9133 13.944H38.7773V21.112C38.7773 21.752 38.5959 22.264 38.2333 22.648C37.8706 23.0107 37.3799 23.192 36.7613 23.192C36.1426 23.192 35.6413 23.0107 35.2573 22.648C34.8946 22.264 34.7133 21.752 34.7133 21.112V2.392C34.7133 1.77333 34.8839 1.29333 35.2253 0.952C35.5879 0.610666 36.0786 0.439999 36.6973 0.439999H44.6973C47.2573 0.439999 49.1986 1.016 50.5213 2.168C51.8653 3.29867 52.5373 4.94133 52.5373 7.096C52.5373 8.84533 52.0359 10.2853 51.0333 11.416C50.0519 12.5253 48.6546 13.24 46.8413 13.56C47.4599 13.7093 48.0039 13.976 48.4733 14.36C48.9426 14.744 49.4013 15.2773 49.8493 15.96L52.7613 20.408ZM44.1213 10.776C45.6786 10.776 46.8199 10.488 47.5453 9.912C48.2706 9.31467 48.6333 8.408 48.6333 7.192C48.6333 5.95467 48.2706 5.05867 47.5453 4.504C46.8199 3.928 45.6786 3.64 44.1213 3.64H38.7453V10.776H44.1213ZM63.7473 23.256C62.1473 23.256 60.7393 22.9253 59.5233 22.264C58.3286 21.6027 57.4006 20.6533 56.7393 19.416C56.0779 18.1787 55.7473 16.7387 55.7473 15.096C55.7473 13.4533 56.0779 12.024 56.7393 10.808C57.4006 9.57067 58.3286 8.62133 59.5233 7.96C60.7393 7.29867 62.1473 6.968 63.7473 6.968C65.3473 6.968 66.7446 7.29867 67.9393 7.96C69.1553 8.62133 70.0833 9.57067 70.7233 10.808C71.3846 12.024 71.7153 13.4533 71.7153 15.096C71.7153 16.7387 71.3846 18.1787 70.7233 19.416C70.0833 20.6533 69.1553 21.6027 67.9393 22.264C66.7446 22.9253 65.3473 23.256 63.7473 23.256ZM63.7153 20.152C65.0166 20.152 66.0086 19.7253 66.6913 18.872C67.3739 18.0187 67.7153 16.76 67.7153 15.096C67.7153 13.4533 67.3739 12.2053 66.6913 11.352C66.0086 10.4773 65.0273 10.04 63.7473 10.04C62.4673 10.04 61.4753 10.4773 60.7713 11.352C60.0886 12.2053 59.7473 13.4533 59.7473 15.096C59.7473 16.76 60.0886 18.0187 60.7713 18.872C61.4539 19.7253 62.4353 20.152 63.7153 20.152ZM85.6795 8.184C85.8502 7.8 86.0742 7.52267 86.3515 7.352C86.6502 7.16 86.9702 7.064 87.3115 7.064C87.8022 7.064 88.2395 7.23467 88.6235 7.576C89.0288 7.896 89.2315 8.30133 89.2315 8.792C89.2315 9.02667 89.1675 9.272 89.0395 9.528L80.3035 27.832C79.9408 28.5573 79.3755 28.92 78.6075 28.92C78.1168 28.92 77.6795 28.76 77.2955 28.44C76.9328 28.1413 76.7515 27.7573 76.7515 27.288C76.7515 27.0533 76.8155 26.7867 76.9435 26.488L79.1195 21.912L73.1675 9.528C73.0608 9.31467 73.0075 9.06933 73.0075 8.792C73.0075 8.30133 73.2102 7.88533 73.6155 7.544C74.0422 7.20267 74.5222 7.032 75.0555 7.032C75.4182 7.032 75.7488 7.128 76.0475 7.32C76.3462 7.49067 76.5808 7.768 76.7515 8.152L81.2315 18.04L85.6795 8.184ZM98.1765 6.968C100.353 6.968 101.963 7.512 103.009 8.6C104.075 9.66667 104.609 11.2987 104.609 13.496V21.304C104.609 21.88 104.438 22.3387 104.097 22.68C103.755 23 103.286 23.16 102.689 23.16C102.134 23.16 101.675 22.9893 101.313 22.648C100.971 22.3067 100.801 21.8587 100.801 21.304V20.6C100.438 21.432 99.8618 22.0827 99.0725 22.552C98.3045 23.0213 97.4085 23.256 96.3845 23.256C95.3392 23.256 94.3898 23.0427 93.5365 22.616C92.6832 22.1893 92.0112 21.6027 91.5205 20.856C91.0298 20.1093 90.7845 19.2773 90.7845 18.36C90.7845 17.208 91.0725 16.3013 91.6485 15.64C92.2458 14.9787 93.2058 14.4987 94.5285 14.2C95.8512 13.9013 97.6752 13.752 100.001 13.752H100.801V13.016C100.801 11.9707 100.577 11.2133 100.129 10.744C99.6805 10.2533 98.9552 10.008 97.9525 10.008C97.3338 10.008 96.7045 10.104 96.0645 10.296C95.4245 10.4667 94.6672 10.7227 93.7925 11.064C93.2378 11.3413 92.8325 11.48 92.5765 11.48C92.1925 11.48 91.8725 11.3413 91.6165 11.064C91.3818 10.7867 91.2645 10.424 91.2645 9.976C91.2645 9.61333 91.3498 9.304 91.5205 9.048C91.7125 8.77067 92.0218 8.51467 92.4485 8.28C93.1952 7.87467 94.0805 7.55467 95.1045 7.32C96.1498 7.08533 97.1738 6.968 98.1765 6.968ZM97.1845 20.376C98.2512 20.376 99.1152 20.024 99.7765 19.32C100.459 18.5947 100.801 17.6667 100.801 16.536V15.864H100.225C98.7952 15.864 97.6858 15.928 96.8965 16.056C96.1072 16.184 95.5418 16.408 95.2005 16.728C94.8592 17.048 94.6885 17.4853 94.6885 18.04C94.6885 18.7227 94.9232 19.288 95.3925 19.736C95.8832 20.1627 96.4805 20.376 97.1845 20.376ZM110.658 23.192C110.082 23.192 109.602 23.032 109.218 22.712C108.855 22.3707 108.674 21.8907 108.674 21.272V2.168C108.674 1.54933 108.855 1.08 109.218 0.759998C109.602 0.439999 110.082 0.279999 110.658 0.279999C111.234 0.279999 111.714 0.439999 112.098 0.759998C112.482 1.08 112.674 1.54933 112.674 2.168V21.272C112.674 21.8907 112.482 22.3707 112.098 22.712C111.714 23.032 111.234 23.192 110.658 23.192ZM2.541 67C1.92233 67 1.43167 66.8293 1.069 66.488C0.727667 66.1467 0.557 65.6667 0.557 65.048V46.392C0.557 45.7733 0.727667 45.2933 1.069 44.952C1.43167 44.6107 1.92233 44.44 2.541 44.44H14.093C14.7117 44.44 15.1917 44.5787 15.533 44.856C15.8743 45.1333 16.045 45.528 16.045 46.04C16.045 46.5733 15.8743 46.9893 15.533 47.288C15.1917 47.5653 14.7117 47.704 14.093 47.704H4.589V53.912H13.453C14.0717 53.912 14.5517 54.0507 14.893 54.328C15.2343 54.6053 15.405 55.0107 15.405 55.544C15.405 56.056 15.2343 56.4507 14.893 56.728C14.5517 57.0053 14.0717 57.144 13.453 57.144H4.589V63.736H14.093C14.7117 63.736 15.1917 63.8853 15.533 64.184C15.8743 64.4613 16.045 64.8667 16.045 65.4C16.045 65.912 15.8743 66.3067 15.533 66.584C15.1917 66.8613 14.7117 67 14.093 67H2.541ZM28.1368 50.968C30.0141 50.968 31.4114 51.5013 32.3288 52.568C33.2461 53.6347 33.7048 55.2453 33.7048 57.4V65.272C33.7048 65.8693 33.5234 66.3387 33.1608 66.68C32.8194 67.0213 32.3394 67.192 31.7208 67.192C31.1021 67.192 30.6114 67.0213 30.2488 66.68C29.8861 66.3387 29.7048 65.8693 29.7048 65.272V57.624C29.7048 56.408 29.4701 55.5227 29.0008 54.968C28.5528 54.4133 27.8381 54.136 26.8568 54.136C25.7048 54.136 24.7768 54.4987 24.0728 55.224C23.3901 55.9493 23.0488 56.92 23.0488 58.136V65.272C23.0488 65.8693 22.8674 66.3387 22.5048 66.68C22.1421 67.0213 21.6514 67.192 21.0328 67.192C20.4141 67.192 19.9234 67.0213 19.5608 66.68C19.2194 66.3387 19.0488 65.8693 19.0488 65.272V52.888C19.0488 52.3333 19.2301 51.8853 19.5928 51.544C19.9554 51.2027 20.4461 51.032 21.0648 51.032C21.6194 51.032 22.0674 51.2027 22.4088 51.544C22.7714 51.864 22.9528 52.2907 22.9528 52.824V53.688C23.4861 52.8133 24.2008 52.1413 25.0968 51.672C25.9928 51.2027 27.0061 50.968 28.1368 50.968ZM45.8955 64.216C46.9622 64.28 47.4955 64.76 47.4955 65.656C47.4955 66.168 47.2822 66.5627 46.8555 66.84C46.4502 67.096 45.8635 67.2027 45.0955 67.16L44.2315 67.096C40.6475 66.84 38.8555 64.92 38.8555 61.336V54.36H37.2555C36.6795 54.36 36.2315 54.232 35.9115 53.976C35.6128 53.72 35.4635 53.3467 35.4635 52.856C35.4635 52.3653 35.6128 51.992 35.9115 51.736C36.2315 51.48 36.6795 51.352 37.2555 51.352H38.8555V48.408C38.8555 47.832 39.0368 47.3733 39.3995 47.032C39.7622 46.6907 40.2528 46.52 40.8715 46.52C41.4688 46.52 41.9488 46.6907 42.3115 47.032C42.6742 47.3733 42.8555 47.832 42.8555 48.408V51.352H45.5755C46.1515 51.352 46.5888 51.48 46.8875 51.736C47.2075 51.992 47.3675 52.3653 47.3675 52.856C47.3675 53.3467 47.2075 53.72 46.8875 53.976C46.5888 54.232 46.1515 54.36 45.5755 54.36H42.8555V61.624C42.8555 63.2027 43.5808 64.0453 45.0315 64.152L45.8955 64.216ZM61.964 62.712C62.3267 62.712 62.6147 62.8507 62.828 63.128C63.0627 63.4053 63.18 63.7787 63.18 64.248C63.18 64.9093 62.7853 65.464 61.996 65.912C61.2707 66.3173 60.4493 66.648 59.532 66.904C58.6147 67.1387 57.74 67.256 56.908 67.256C54.3907 67.256 52.396 66.5307 50.924 65.08C49.452 63.6293 48.716 61.6453 48.716 59.128C48.716 57.528 49.036 56.1093 49.676 54.872C50.316 53.6347 51.212 52.6747 52.364 51.992C53.5373 51.3093 54.86 50.968 56.332 50.968C57.74 50.968 58.9667 51.2773 60.012 51.896C61.0573 52.5147 61.868 53.3893 62.444 54.52C63.02 55.6507 63.308 56.984 63.308 58.52C63.308 59.4373 62.9027 59.896 62.092 59.896H52.652C52.78 61.368 53.196 62.456 53.9 63.16C54.604 63.8427 55.628 64.184 56.972 64.184C57.6547 64.184 58.252 64.0987 58.764 63.928C59.2973 63.7573 59.8947 63.5227 60.556 63.224C61.196 62.8827 61.6653 62.712 61.964 62.712ZM56.428 53.784C55.34 53.784 54.4653 54.1253 53.804 54.808C53.164 55.4907 52.78 56.472 52.652 57.752H59.884C59.8413 56.4507 59.5213 55.4693 58.924 54.808C58.3267 54.1253 57.4947 53.784 56.428 53.784ZM75.316 51.032C75.8707 50.9893 76.308 51.1067 76.628 51.384C76.948 51.6613 77.108 52.0773 77.108 52.632C77.108 53.208 76.9693 53.6347 76.692 53.912C76.4147 54.1893 75.9133 54.3707 75.188 54.456L74.228 54.552C72.9693 54.68 72.0413 55.1067 71.444 55.832C70.868 56.5573 70.58 57.464 70.58 58.552V65.272C70.58 65.8907 70.388 66.3707 70.004 66.712C69.62 67.032 69.14 67.192 68.564 67.192C67.988 67.192 67.508 67.032 67.124 66.712C66.7613 66.3707 66.58 65.8907 66.58 65.272V52.888C66.58 52.2907 66.7613 51.832 67.124 51.512C67.508 51.192 67.9773 51.032 68.532 51.032C69.0867 51.032 69.5347 51.192 69.876 51.512C70.2173 51.8107 70.388 52.248 70.388 52.824V54.104C70.7933 53.1653 71.3907 52.44 72.18 51.928C72.9907 51.416 73.8867 51.128 74.868 51.064L75.316 51.032ZM87.822 50.968C89.166 50.968 90.3607 51.3093 91.406 51.992C92.4727 52.6747 93.294 53.6453 93.87 54.904C94.4673 56.1413 94.766 57.5707 94.766 59.192C94.766 60.8133 94.4673 62.232 93.87 63.448C93.294 64.664 92.4833 65.6027 91.438 66.264C90.3927 66.9253 89.1873 67.256 87.822 67.256C86.7127 67.256 85.7207 67.0213 84.846 66.552C83.9713 66.0827 83.2993 65.432 82.83 64.6V71.128C82.83 71.6827 82.6487 72.12 82.286 72.44C81.9233 72.76 81.4433 72.92 80.846 72.92C80.2487 72.92 79.758 72.7493 79.374 72.408C79.0113 72.0667 78.83 71.6187 78.83 71.064V52.92C78.83 52.344 79.0007 51.8853 79.342 51.544C79.7047 51.2027 80.1847 51.032 80.782 51.032C81.3793 51.032 81.8593 51.2027 82.222 51.544C82.5847 51.8853 82.766 52.344 82.766 52.92V53.72C83.2353 52.8453 83.9073 52.1733 84.782 51.704C85.678 51.2133 86.6913 50.968 87.822 50.968ZM86.766 64.152C88.0247 64.152 89.006 63.7253 89.71 62.872C90.414 61.9973 90.766 60.7707 90.766 59.192C90.766 57.5707 90.414 56.312 89.71 55.416C89.006 54.52 88.0247 54.072 86.766 54.072C85.486 54.072 84.494 54.5093 83.79 55.384C83.1073 56.2587 82.766 57.5067 82.766 59.128C82.766 60.728 83.1073 61.9653 83.79 62.84C84.494 63.7147 85.486 64.152 86.766 64.152ZM106.785 51.032C107.339 50.9893 107.777 51.1067 108.097 51.384C108.417 51.6613 108.577 52.0773 108.577 52.632C108.577 53.208 108.438 53.6347 108.161 53.912C107.883 54.1893 107.382 54.3707 106.657 54.456L105.697 54.552C104.438 54.68 103.51 55.1067 102.913 55.832C102.337 56.5573 102.049 57.464 102.049 58.552V65.272C102.049 65.8907 101.857 66.3707 101.473 66.712C101.089 67.032 100.609 67.192 100.033 67.192C99.4568 67.192 98.9768 67.032 98.5928 66.712C98.2301 66.3707 98.0488 65.8907 98.0488 65.272V52.888C98.0488 52.2907 98.2301 51.832 98.5928 51.512C98.9768 51.192 99.4461 51.032 100.001 51.032C100.555 51.032 101.003 51.192 101.345 51.512C101.686 51.8107 101.857 52.248 101.857 52.824V54.104C102.262 53.1653 102.859 52.44 103.649 51.928C104.459 51.416 105.355 51.128 106.337 51.064L106.785 51.032ZM112.283 67.192C111.707 67.192 111.227 67.032 110.843 66.712C110.48 66.3707 110.299 65.8907 110.299 65.272V52.92C110.299 52.3013 110.48 51.832 110.843 51.512C111.227 51.192 111.707 51.032 112.283 51.032C112.859 51.032 113.339 51.192 113.723 51.512C114.107 51.832 114.299 52.3013 114.299 52.92V65.272C114.299 65.8907 114.107 66.3707 113.723 66.712C113.339 67.032 112.859 67.192 112.283 67.192ZM112.283 48.184C111.557 48.184 110.981 47.992 110.555 47.608C110.128 47.2027 109.915 46.68 109.915 46.04C109.915 45.4 110.128 44.888 110.555 44.504C110.981 44.12 111.557 43.928 112.283 43.928C112.987 43.928 113.552 44.12 113.979 44.504C114.427 44.888 114.651 45.4 114.651 46.04C114.651 46.68 114.437 47.2027 114.011 47.608C113.584 47.992 113.008 48.184 112.283 48.184ZM124.088 67.256C121.762 67.256 119.885 66.7973 118.456 65.88C117.773 65.4747 117.432 64.8987 117.432 64.152C117.432 63.7253 117.549 63.384 117.784 63.128C118.018 62.8507 118.306 62.712 118.648 62.712C119.01 62.712 119.512 62.8827 120.152 63.224C120.834 63.544 121.453 63.7893 122.008 63.96C122.584 64.1307 123.309 64.216 124.184 64.216C125.08 64.216 125.773 64.0667 126.264 63.768C126.776 63.4693 127.032 63.0533 127.032 62.52C127.032 62.1573 126.925 61.8693 126.712 61.656C126.52 61.4427 126.157 61.2507 125.624 61.08C125.112 60.888 124.322 60.6747 123.256 60.44C121.357 60.056 119.992 59.512 119.16 58.808C118.349 58.104 117.944 57.1333 117.944 55.896C117.944 54.9573 118.221 54.1147 118.776 53.368C119.33 52.6 120.088 52.0133 121.048 51.608C122.029 51.1813 123.138 50.968 124.376 50.968C125.272 50.968 126.136 51.0853 126.968 51.32C127.8 51.5333 128.546 51.8533 129.208 52.28C129.89 52.7067 130.232 53.272 130.232 53.976C130.232 54.4027 130.114 54.7653 129.88 55.064C129.645 55.3413 129.357 55.48 129.016 55.48C128.781 55.48 128.546 55.4373 128.312 55.352C128.098 55.2453 127.821 55.096 127.48 54.904C126.861 54.584 126.328 54.3493 125.88 54.2C125.432 54.0293 124.877 53.944 124.216 53.944C123.426 53.944 122.797 54.104 122.328 54.424C121.88 54.744 121.656 55.1813 121.656 55.736C121.656 56.2693 121.89 56.6747 122.36 56.952C122.829 57.2293 123.736 57.5067 125.08 57.784C126.509 58.0827 127.629 58.424 128.44 58.808C129.25 59.192 129.826 59.672 130.168 60.248C130.53 60.824 130.712 61.56 130.712 62.456C130.712 63.9067 130.104 65.0693 128.888 65.944C127.693 66.8187 126.093 67.256 124.088 67.256ZM146.339 62.712C146.702 62.712 146.99 62.8507 147.203 63.128C147.438 63.4053 147.555 63.7787 147.555 64.248C147.555 64.9093 147.16 65.464 146.371 65.912C145.646 66.3173 144.824 66.648 143.907 66.904C142.99 67.1387 142.115 67.256 141.283 67.256C138.766 67.256 136.771 66.5307 135.299 65.08C133.827 63.6293 133.091 61.6453 133.091 59.128C133.091 57.528 133.411 56.1093 134.051 54.872C134.691 53.6347 135.587 52.6747 136.739 51.992C137.912 51.3093 139.235 50.968 140.707 50.968C142.115 50.968 143.342 51.2773 144.387 51.896C145.432 52.5147 146.243 53.3893 146.819 54.52C147.395 55.6507 147.683 56.984 147.683 58.52C147.683 59.4373 147.278 59.896 146.467 59.896H137.027C137.155 61.368 137.571 62.456 138.275 63.16C138.979 63.8427 140.003 64.184 141.347 64.184C142.03 64.184 142.627 64.0987 143.139 63.928C143.672 63.7573 144.27 63.5227 144.931 63.224C145.571 62.8827 146.04 62.712 146.339 62.712ZM140.803 53.784C139.715 53.784 138.84 54.1253 138.179 54.808C137.539 55.4907 137.155 56.472 137.027 57.752H144.259C144.216 56.4507 143.896 55.4693 143.299 54.808C142.702 54.1253 141.87 53.784 140.803 53.784Z" fill="#858080"/>
</svg>
